<?xml version="1.0" encoding="UTF-8"?>
<!DOCTYPE svg PUBLIC "-//W3C//DTD SVG 1.1//EN" "http://www.w3.org/Graphics/SVG/1.1/DTD/svg11.dtd">
<!-- Creator: CorelDRAW 2020 (64-Bit) -->
<svg xmlns="http://www.w3.org/2000/svg" xml:space="preserve" width="126.5mm" height="65mm" version="1.1" style="shape-rendering:geometricPrecision; text-rendering:geometricPrecision; image-rendering:optimizeQuality; fill-rule:evenodd; clip-rule:evenodd"
viewBox="0 0 12650 6500"
 xmlns:xlink="http://www.w3.org/1999/xlink"
 xmlns:xodm="http://www.corel.com/coreldraw/odm/2003">
 <defs>
  <style type="text/css">
   <![CDATA[
    .fil0 {fill:#2B2A29;fill-rule:nonzero}
    .fil3 {fill:#FDFBF2;fill-rule:nonzero}
    .fil5 {fill:#F4DBA3;fill-rule:nonzero}
    .fil4 {fill:#F2E8DA;fill-rule:nonzero}
    .fil6 {fill:#E06484;fill-rule:nonzero}
    .fil1 {fill:#C42A32;fill-rule:nonzero}
    .fil2 {fill:#CCA427;fill-rule:nonzero}
    .fil7 {fill:#C9991E;fill-rule:nonzero}
   ]]>
  </style>
 </defs>
 <g id="Слой_x0020_1">
  <metadata id="CorelCorpID_0Corel-Layer"/>
  <path class="fil0" d="M7370.3 2318.91c-0.05,1.27 -0.22,2.56 -0.32,3.85 -0.11,0.95 -0.17,1.86 -0.32,2.77 -0.11,1.02 -0.27,1.93 -0.43,2.89 -0.06,0.69 -0.16,1.45 -0.27,2.26 -0.27,1.44 -0.59,2.88 -0.97,4.43 -0.32,1.5 -0.68,3.06 -1.06,4.71 -0.11,0.38 -0.28,0.81 -0.38,1.29 -0.43,1.49 -0.91,3.1 -1.44,4.6 -0.53,1.76 -1.12,3.53 -1.82,5.29 -0.64,1.78 -1.34,3.49 -2.1,5.3 -0.74,1.71 -1.54,3.49 -2.35,5.2 -0.8,1.76 -1.65,3.47 -2.56,5.29 -1.78,3.43 -3.7,6.84 -5.73,10.33 -1.13,1.76 -2.14,3.43 -3.27,5.19 -4.44,6.8 -9.31,13.7 -14.65,20.56 -1.35,1.71 -2.68,3.41 -4.06,5.12 -4.13,5.14 -8.51,10.18 -13.12,15.31 -1.51,1.67 -3.05,3.43 -4.6,5.14 -3.11,3.37 -6.31,6.8 -9.59,10.16 -1.97,2.14 -4.06,4.28 -6.1,6.37 -2.07,2.14 -4.23,4.34 -6.31,6.48l-2.56 2.52c-8.51,8.55 -17.34,17.17 -26.23,25.85 -35.64,34.78 -72.4,70.79 -97.06,110.27 -1.88,3.11 -3.75,6.27 -5.57,9.42 -1.18,2.1 -2.3,4.13 -3.38,6.16 -1.34,2.56 -2.67,5.19 -4.01,7.81 -0.06,0.22 -0.21,0.43 -0.27,0.59 -0.7,1.23 -1.27,2.46 -1.86,3.75 -1.29,2.67 -2.58,5.4 -3.81,8.18 -0.59,1.45 -1.23,2.83 -1.82,4.18 -1.12,2.84 -2.35,5.62 -3.48,8.45 -2.3,5.68 -4.44,11.35 -6.52,17.17 -1.12,2.9 -2.09,5.78 -3.11,8.68 -0.95,2.94 -1.98,5.83 -2.94,8.77 -1.61,4.99 -3.16,10.01 -4.66,14.94 -0.32,0.91 -0.63,1.87 -0.91,2.73 -0.91,2.99 -1.76,5.89 -2.62,8.87 -0.85,2.9 -1.76,5.89 -2.63,8.83 -1.44,5.08 -2.88,10.12 -4.32,15.09 -0.27,0.91 -0.48,1.72 -0.7,2.58 -1.33,4.43 -2.51,8.83 -3.85,13.22 -6.96,24.13 -14.03,47.56 -22.69,69.24 -0.64,1.82 -1.4,3.64 -2.2,5.36 -0.91,2.24 -1.87,4.49 -2.84,6.68 -0.74,1.76 -1.59,3.48 -2.35,5.3 -2.62,5.61 -5.4,11.07 -8.34,16.32 -1.93,3.58 -4.02,7.01 -6.1,10.38 -2.2,3.53 -4.5,6.9 -6.96,10.28 -0.43,0.64 -0.91,1.23 -1.4,1.93 -1.76,2.29 -3.53,4.64 -5.4,6.84 -1.23,1.5 -2.52,2.94 -3.79,4.38 -1.29,1.46 -2.68,2.94 -3.97,4.29 -1.6,1.66 -3.37,3.37 -5.02,4.98 -1.29,1.12 -2.63,2.35 -3.96,3.47 -1.23,1.13 -2.52,2.14 -3.75,3.16 -0.17,0.16 -0.38,0.32 -0.59,0.48 -1.34,1.02 -2.67,2.14 -4.07,3.1 -1.71,1.29 -3.36,2.41 -5.03,3.59 -45.59,30.45 -118.58,31.25 -195.85,32.05 -7.07,0.05 -14.18,0.17 -21.29,0.22 5.44,-2.99 10.9,-6.16 16.32,-9.36 4.53,-2.58 9.08,-5.31 13.53,-8.09 5.5,-3.32 11.07,-6.79 16.53,-10.27 3.81,-2.47 7.6,-4.93 11.35,-7.44 0.91,-0.64 1.88,-1.17 2.79,-1.82 4.17,-2.84 8.39,-5.68 12.57,-8.56 4.6,-3.26 9.3,-6.52 13.91,-9.84l0.05 0c4.61,-3.37 9.16,-6.75 13.65,-10.17 4.55,-3.43 9.04,-6.85 13.49,-10.39 3.79,-2.94 7.6,-5.99 11.34,-9.1 2.57,-2.08 5.13,-4.17 7.65,-6.31 6.05,-5.08 12.04,-10.16 17.88,-15.35 2.35,-2.09 4.7,-4.17 7.01,-6.33l1.61 -1.38c0.26,-0.27 0.53,-0.54 0.85,-0.8 1.5,-1.4 3.05,-2.79 4.49,-4.17 1.23,-1.18 2.36,-2.26 3.59,-3.38 11.92,-11.29 23.38,-22.79 34.34,-34.57 2.05,-2.14 4.02,-4.28 6.01,-6.47 0.58,-0.69 1.23,-1.39 1.87,-2.09 2.03,-2.24 4.06,-4.55 6.05,-6.85 2.03,-2.25 3.96,-4.43 5.82,-6.69 4.07,-4.71 8.03,-9.47 11.88,-14.23 1.71,-2.1 3.43,-4.17 5.1,-6.27 1.54,-2.03 3.15,-4.06 4.76,-6.03l6.9 -9.11c1.87,-2.45 3.63,-4.93 5.4,-7.38 1.55,-2.04 2.99,-4.07 4.45,-6.16 1.65,-2.29 3.3,-4.66 4.91,-6.95 1.82,-2.73 3.7,-5.46 5.52,-8.13 1.82,-2.73 3.64,-5.46 5.34,-8.19 1.61,-2.46 3.28,-5.04 4.83,-7.49 1.6,-2.52 3.21,-5.04 4.7,-7.54 3.11,-5.14 6.16,-10.18 9.05,-15.37 1.49,-2.56 2.95,-5.08 4.39,-7.7 1.44,-2.57 2.88,-5.15 4.28,-7.76 1.44,-2.68 2.89,-5.46 4.27,-8.14 1.72,-3.37 3.49,-6.8 5.19,-10.16 1.46,-3.01 2.84,-5.95 4.29,-8.89 0.22,-0.47 0.43,-0.91 0.58,-1.34 0.38,-0.7 0.7,-1.39 1.03,-2.08 1.12,-2.26 2.14,-4.55 3.2,-6.9 0.21,-0.44 0.38,-0.91 0.53,-1.39l0.06 0c0.06,-0.17 0.11,-0.32 0.22,-0.53 1.54,-3.22 2.89,-6.54 4.27,-9.8 30.78,-71.81 46.4,-146.84 46.4,-223.85 0,-20.22 -1.12,-40.35 -3.26,-60.31 -4.97,-45.9 -15.51,-90.97 -31.73,-134.9 -3.22,-8.82 -6.69,-17.55 -10.33,-26.27 -7.33,-17.4 -15.58,-34.57 -24.72,-51.53 -2.84,-5.24 -5.68,-10.39 -8.62,-15.47 -1.5,-2.56 -2.94,-5.14 -4.49,-7.7 -1.5,-2.57 -3,-5.15 -4.55,-7.65l-0.06 0c-0.74,-1.24 -1.49,-2.52 -2.29,-3.75 -0.55,-0.86 -1.02,-1.66 -1.56,-2.57 -1.87,-2.89 -3.69,-5.83 -5.62,-8.77 -1.6,-2.47 -3.26,-4.98 -4.93,-7.45l-4.97 -7.37c-5.08,-7.39 -10.38,-14.73 -15.78,-21.95 -37.89,-50.57 -83.81,-97.17 -137.15,-139.19 -81.08,-63.72 -175.26,-113.76 -280.14,-148.65 -27.08,-8.98 -54.64,-16.92 -82.46,-23.71 -10.43,-2.5 -20.93,-4.92 -31.47,-7.12 -73.9,-15.62 -150.16,-23.48 -227.9,-23.48 -77.75,0 -154.01,7.86 -227.91,23.48 -10.5,2.2 -20.98,4.62 -31.47,7.12 -27.88,6.79 -55.38,14.73 -82.46,23.71 -104.88,34.89 -199.12,84.93 -280.14,148.65 -81.29,64.01 -145.28,138.66 -190.02,221.87 -1.5,2.78 -3,5.66 -4.44,8.5 -1.5,2.84 -2.94,5.67 -4.38,8.57 -1.4,2.84 -2.78,5.67 -4.18,8.55 -0.27,0.55 -0.53,1.19 -0.86,1.72 -2.19,4.61 -4.28,9.21 -6.36,13.8 -2.26,5.1 -4.44,10.18 -6.53,15.26 -0.7,1.87 -1.51,3.75 -2.31,5.67 -0.91,2.3 -1.81,4.66 -2.72,7.01l-3.32 8.77c-1.07,2.94 -2.09,5.84 -3.15,8.84 -0.65,1.81 -1.29,3.63 -1.88,5.45 -0.53,1.77 -1.13,3.43 -1.72,5.14 -1.54,4.76 -3.05,9.47 -4.43,14.23 -0.75,2.41 -1.39,4.72 -2.09,7.07 -0.8,2.73 -1.55,5.4 -2.24,8.08 -0.6,2.14 -1.19,4.22 -1.67,6.31 -0.64,2.35 -1.23,4.77 -1.82,7.18 -1.17,4.76 -2.25,9.57 -3.31,14.33 -0.06,0.32 -0.11,0.65 -0.21,1.02 -0.7,3.26 -1.35,6.58 -1.99,9.9 -0.64,3.22 -1.29,6.53 -1.82,9.74 -0.15,0.64 -0.21,1.23 -0.38,1.82 -0.68,4.07 -1.27,8.09 -1.93,12.09 -0.63,4.17 -1.22,8.36 -1.69,12.53 -0.07,0.11 -0.07,0.26 -0.07,0.43 -0.53,4.23 -1.07,8.45 -1.5,12.74 -0.25,2.14 -0.42,4.28 -0.59,6.41 -0.26,2.14 -0.42,4.28 -0.58,6.42 -0.1,0.91 -0.16,1.93 -0.21,2.84 -0.06,0.97 -0.16,1.88 -0.22,2.83 -0.05,0.49 -0.05,0.91 -0.11,1.34 -0.11,1.46 -0.15,2.84 -0.26,4.34 -0.17,2.79 -0.38,5.67 -0.42,8.51 -0.17,2.35 -0.23,4.65 -0.28,7 -0.21,6.21 -0.32,12.37 -0.32,18.57 0,94.72 23.55,186.65 69.99,273.08 2.14,3.9 4.28,7.82 6.53,11.71 1.82,3.22 3.64,6.38 5.52,9.53 2.03,3.54 4.11,7.01 6.26,10.54 2.14,3.43 4.28,6.86 6.52,10.33 2.2,3.43 4.45,6.9 6.69,10.27 2.25,3.43 4.55,6.8 6.91,10.23 2.35,3.36 4.7,6.75 7.17,10.05 2.4,3.37 4.87,6.65 7.33,10.01 2.41,3.27 4.93,6.53 7.43,9.74 0.06,0.06 0.17,0.21 0.21,0.32 2.37,3.05 4.77,5.99 7.18,9 2.79,3.47 5.56,6.84 8.4,10.33 2.46,2.83 4.93,5.78 7.43,8.61 1.57,1.87 3.17,3.69 4.77,5.51 1.66,1.86 3.38,3.74 5.03,5.67 4.49,4.98 9.04,9.91 13.7,14.78 1.77,1.82 3.53,3.64 5.35,5.5 2.08,2.25 4.28,4.45 6.48,6.63l0 0.06c1.65,1.61 3.31,3.26 5.08,4.87 3.58,3.64 7.22,7.18 11.03,10.71 1.34,1.27 2.73,2.56 4.17,3.96 1.5,1.38 2.99,2.84 4.55,4.17 0.05,0 0.11,0.11 0.15,0.21l0.06 0c0.05,0 0.05,0.05 0.11,0.05l0.15 0.16c0.23,0.28 0.49,0.49 0.76,0.7 0.37,0.32 0.74,0.7 1.17,1.06 0.91,0.91 1.93,1.78 2.9,2.69 1.39,1.17 2.77,2.41 4.17,3.64 4.72,4.17 9.46,8.34 14.39,12.47 3.64,3.09 7.39,6.2 11.14,9.19 3.68,3.11 7.49,6.16 11.28,9.1 4.45,3.54 8.94,6.96 13.49,10.39 4.55,3.42 9.1,6.8 13.69,10.17 7.82,5.67 15.86,11.18 23.88,16.64 2.62,1.76 5.23,3.47 7.86,5.18 2.94,1.99 5.94,3.96 8.99,5.84 2.14,1.38 4.28,2.73 6.42,4.07 7.45,4.76 15.05,9.36 22.75,13.85 1.7,0.97 3.37,2.05 5.13,3 3.96,2.31 7.98,4.6 12.04,6.86 -1.33,-0.06 -2.56,-0.06 -3.79,-0.11 -5.9,0 -11.68,-0.12 -17.5,-0.17 -77.33,-0.8 -150.33,-1.6 -195.91,-32.05 -31.41,-21.04 -50.89,-53.09 -65.77,-90.54 -1.61,-3.96 -3.11,-7.92 -4.55,-11.94 -1.55,-4.12 -2.99,-8.19 -4.34,-12.36 -1.44,-4.17 -2.77,-8.34 -4.06,-12.51l-2.08 -6.44c-1.23,-4.27 -2.52,-8.55 -3.85,-12.93 -0.66,-2.14 -1.23,-4.34 -1.93,-6.48 -1.18,-4.39 -2.52,-8.78 -3.75,-13.23 -0.63,-2.14 -1.29,-4.38 -1.88,-6.57l-2.56 -8.84c-0.91,-2.94 -1.72,-5.89 -2.57,-8.83 -0.86,-2.94 -1.71,-5.88 -2.62,-8.83 -0.91,-2.98 -1.71,-5.93 -2.68,-8.87 -0.92,-3 -1.81,-5.89 -2.78,-8.83 -0.85,-3 -1.82,-5.88 -2.78,-8.84 -3,-9.15 -6.16,-18.23 -9.58,-27.23 -0.43,-1.02 -0.81,-2.09 -1.19,-3.11 -0.47,-1.23 -0.95,-2.35 -1.44,-3.58 -0.15,-0.38 -0.32,-0.7 -0.48,-1.12 -1.06,-2.69 -2.25,-5.36 -3.37,-8.03 -0.53,-1.35 -1.17,-2.73 -1.76,-4.18 -0.65,-1.34 -1.29,-2.78 -1.88,-4.11 -1.28,-2.73 -2.63,-5.4 -3.96,-8.19 -1.27,-2.67 -2.62,-5.36 -4.07,-8.03 -0.69,-1.29 -1.44,-2.62 -2.18,-3.96 -0.59,-1.01 -1.14,-2.03 -1.71,-3l-0.81 -1.44c-0.7,-1.23 -1.39,-2.41 -2.14,-3.58 -0.21,-0.44 -0.48,-0.81 -0.65,-1.19 -0.04,-0.04 -0.04,-0.16 -0.15,-0.21 -0.44,-0.7 -0.86,-1.44 -1.34,-2.2 -1.56,-2.45 -3.1,-4.87 -4.76,-7.32l-0.06 0c-1.61,-2.46 -3.26,-4.87 -4.97,-7.28 -3.05,-4.22 -6.16,-8.41 -9.36,-12.52 -1.25,-1.67 -2.48,-3.15 -3.75,-4.66 -3.91,-4.93 -7.92,-9.79 -12.15,-14.6 -1.55,-1.78 -3.22,-3.54 -4.76,-5.31 -1.72,-2.03 -3.54,-4.07 -5.4,-6.1 -5.52,-5.93 -11.2,-11.88 -16.92,-17.76 -11.51,-11.77 -23.22,-23.27 -34.95,-34.72 -56.82,-55.51 -110.39,-107.94 -110.39,-166.44 0,-57.03 50.99,-108.3 106.33,-162.35 1.29,-1.29 2.67,-2.67 4.06,-4.02 13.66,-13.31 27.4,-26.8 40.67,-40.56 3.75,-3.96 7.45,-7.92 11.2,-11.87 2.29,-2.63 4.64,-5.19 6.94,-7.82 2.04,-2.3 4.13,-4.59 6.1,-6.9 1.99,-2.35 3.96,-4.7 5.84,-7.07 2.03,-2.35 3.9,-4.7 5.72,-7.05 1.93,-2.31 3.75,-4.72 5.52,-7.13 1.76,-2.4 3.54,-4.81 5.3,-7.22 1.71,-2.41 3.42,-4.87 5.03,-7.33 1.66,-2.41 3.2,-4.87 4.76,-7.32 0.64,-1.02 1.23,-1.99 1.76,-2.95 13.6,-22.48 23.86,-47.31 32.59,-72.88 1.88,-5.74 3.74,-11.41 5.56,-17.19 0.91,-2.83 1.78,-5.72 2.63,-8.61 1.77,-5.72 3.47,-11.56 5.14,-17.28 1.71,-5.78 3.31,-11.51 5.02,-17.23 0.49,-1.99 1.12,-4.07 1.67,-6.06 0.59,-1.97 1.17,-4 1.71,-5.99 2.4,-8.23 4.81,-16.47 7.27,-24.56 1.71,-5.56 3.43,-11.07 5.2,-16.53 1.97,-6.05 4.07,-11.94 6.21,-17.82 0.38,-1.02 0.74,-2.03 1.12,-2.99 0.74,-1.99 1.5,-3.97 2.24,-5.95 0.43,-0.97 0.81,-1.98 1.19,-2.94l0 -0.06c0.1,-0.21 0.21,-0.42 0.26,-0.64 1.07,-2.73 2.19,-5.4 3.32,-7.98 0.8,-1.92 1.54,-3.74 2.41,-5.5 1.65,-3.58 3.26,-7.18 5.08,-10.65 0.8,-1.76 1.76,-3.47 2.62,-5.19 0.91,-1.71 1.87,-3.37 2.78,-5.08 0.8,-1.35 1.67,-2.68 2.41,-4.13 0.85,-1.33 1.61,-2.67 2.52,-4.06 2.52,-4.02 5.08,-7.87 7.92,-11.67 0.91,-1.22 1.86,-2.45 2.73,-3.7 0.95,-1.16 1.86,-2.35 2.84,-3.41 0.04,-0.11 0.15,-0.21 0.21,-0.32 0.95,-1.24 1.92,-2.3 2.94,-3.43 1.02,-1.12 2.03,-2.3 3.11,-3.42 1.02,-1.13 2.08,-2.25 3.2,-3.37 1.61,-1.61 3.22,-3.16 4.98,-4.72 1.5,-1.44 3.04,-2.78 4.65,-4.22 0.38,-0.27 0.66,-0.48 1.02,-0.69 1.56,-1.4 3.26,-2.69 4.93,-3.96 1.86,-1.35 3.79,-2.73 5.67,-4.02 7.86,-5.19 16.48,-9.53 25.79,-13.17 1.33,-0.53 2.73,-1.02 4.12,-1.55 0.26,-0.06 0.54,-0.16 0.75,-0.27 1.44,-0.53 2.83,-0.96 4.23,-1.38 0.64,-0.27 1.29,-0.49 1.93,-0.7 1.5,-0.44 2.94,-0.91 4.55,-1.33 4.81,-1.4 9.74,-2.63 14.82,-3.75 1.6,-0.38 3.26,-0.76 4.87,-1.02 7.32,-1.45 14.77,-2.62 22.58,-3.64 8.45,-1.07 17.13,-1.92 26.11,-2.62 3.21,-0.21 6.43,-0.43 9.69,-0.59 0.32,0 0.53,-0.06 0.8,-0.06 1.13,-0.05 2.19,-0.11 3.31,-0.22 0.91,-0.04 1.82,-0.1 2.79,-0.1 3.37,-0.21 6.74,-0.37 10.17,-0.47 1.44,-0.06 2.89,-0.12 4.38,-0.17 3.59,-0.1 7.17,-0.27 10.81,-0.32 3.65,-0.1 7.23,-0.21 10.87,-0.27 3.7,-0.05 7.32,-0.15 11.02,-0.15 3.69,-0.06 7.44,-0.06 11.14,-0.11 3.74,-0.06 7.43,-0.12 11.18,-0.12 15.62,-0.21 31.41,-0.36 47.25,-0.79 3.85,-0.12 7.75,-0.23 11.6,-0.38 2.84,-0.1 5.67,-0.21 8.57,-0.32 2.35,-0.1 4.76,-0.21 7.12,-0.37 2.68,-0.11 5.29,-0.22 7.81,-0.38 2.68,-0.11 5.25,-0.32 7.87,-0.47 1.27,-0.07 2.62,-0.17 3.9,-0.34 5.88,-0.42 11.72,-0.95 17.55,-1.44 3.05,-0.32 6.22,-0.64 9.27,-1.06 4.11,-0.49 8.17,-0.97 12.36,-1.5 3.37,-0.49 6.8,-1.02 10.1,-1.61 3.75,-0.53 7.56,-1.23 11.3,-1.93 2.84,-0.53 5.68,-1.07 8.56,-1.71 2.52,-0.53 4.97,-1.06 7.55,-1.65 1.17,-0.22 2.4,-0.55 3.63,-0.87 0.27,-0.11 0.65,-0.15 0.97,-0.26 1.5,-0.33 3.05,-0.69 4.59,-1.12 1.82,-0.48 3.64,-1.02 5.46,-1.46 33.98,-9.46 66.37,-25.36 97.83,-43.44 9.42,-5.46 18.78,-11.03 28.09,-16.75 3.05,-1.88 6.2,-3.8 9.25,-5.67 6.16,-3.81 12.26,-7.7 18.36,-11.51 5.09,-3.16 10.12,-6.31 15.15,-9.47 4.92,-3.11 10,-6.22 14.93,-9.26l11.87 -7.23c7.98,-4.65 15.84,-9.31 23.77,-13.63 17.71,-9.8 35.32,-18.42 52.97,-25.05 3.92,-1.5 7.92,-2.89 11.83,-4.12 1.93,-0.7 3.9,-1.23 5.89,-1.88 1.97,-0.58 3.9,-1.17 5.89,-1.6 2.03,-0.59 3.95,-1.07 5.93,-1.56 1.12,-0.32 2.3,-0.53 3.43,-0.74 1.12,-0.27 2.19,-0.53 3.36,-0.74 0.44,-0.06 0.76,-0.17 1.12,-0.28 1.4,-0.21 2.63,-0.48 3.98,-0.69 1.97,-0.32 3.96,-0.64 5.93,-0.91 7.98,-1.19 15.94,-1.72 23.98,-1.72 8.03,0 15.99,0.53 23.97,1.72 1.93,0.27 4.02,0.59 5.94,0.91 3.75,0.69 7.48,1.44 11.23,2.3 3.75,0.85 7.45,1.93 11.19,2.94 2.4,0.75 4.77,1.44 7.16,2.25 3.96,1.23 7.88,2.62 11.79,4.12 3.2,1.23 6.36,2.46 9.57,3.75 1.61,0.68 3.16,1.38 4.76,2.14 2.67,1.12 5.3,2.35 8.03,3.52 0.42,0.17 0.91,0.44 1.33,0.65 2.69,1.17 5.42,2.56 8.19,3.9 2.95,1.46 5.84,2.94 8.79,4.44 3.41,1.78 6.84,3.58 10.27,5.46 1.44,0.81 2.83,1.55 4.17,2.36 3.32,1.82 6.48,3.64 9.74,5.46 9.9,5.72 19.79,11.77 29.86,17.93 7.92,4.91 15.95,9.95 24.03,15.03 6.1,3.81 12.2,7.7 18.36,11.51 3.04,1.87 6.2,3.79 9.25,5.67 9.31,5.72 18.63,11.29 28.09,16.75 31.46,18.08 63.85,33.98 97.82,43.44 1.82,0.44 3.64,0.98 5.51,1.46 1.5,0.43 3.05,0.79 4.55,1.12 0.32,0.11 0.64,0.15 0.97,0.26 1.28,0.32 2.46,0.65 3.63,0.87 2.51,0.59 5.03,1.12 7.55,1.65 2.88,0.64 5.67,1.18 8.56,1.71 0.97,0.17 1.82,0.32 2.73,0.53 2.89,0.55 5.73,1.02 8.61,1.4 3.49,0.59 6.96,1.18 10.44,1.65 4.02,0.49 7.98,1.02 11.98,1.46 3.11,0.42 6.16,0.74 9.27,1.06 5.82,0.49 11.71,1.02 17.55,1.44 1.27,0.17 2.62,0.27 3.9,0.34 2.62,0.15 5.2,0.36 7.81,0.47 2.62,0.16 5.2,0.27 7.87,0.38 2.41,0.16 4.87,0.27 7.33,0.37 2.79,0.11 5.57,0.26 8.36,0.32 3.62,0.15 7.16,0.22 10.75,0.32 16.11,0.49 32.21,0.64 48.1,0.85 28.79,0.23 56.95,0.55 83.26,2.41 3.22,0.17 6.37,0.43 9.48,0.7 0.37,0.06 0.75,0.06 1.13,0.17 2.88,0.21 5.88,0.47 8.76,0.8l0.28 0c3.11,0.37 6.2,0.68 9.25,1.06 3.11,0.43 6.22,0.87 9.21,1.34 2.56,0.38 5.08,0.76 7.55,1.18 1.28,0.27 2.61,0.49 3.9,0.74 1.4,0.28 2.67,0.6 3.96,0.81 1.18,0.21 2.3,0.48 3.43,0.76 2.88,0.63 5.61,1.27 8.34,1.97 2.47,0.64 4.93,1.33 7.34,1.99 1.38,0.47 2.84,0.91 4.22,1.38 1.33,0.44 2.68,0.8 3.91,1.29 0.96,0.31 1.87,0.63 2.84,1.01 1.71,0.59 3.43,1.23 5.08,1.93 1.34,0.53 2.62,1.08 3.85,1.61l3.75 1.71c1.23,0.59 2.46,1.17 3.69,1.82l3.59 1.87c0.47,0.27 1.02,0.54 1.44,0.86 0.49,0.26 1.02,0.53 1.5,0.8 2.08,1.17 4.11,2.51 6.15,3.8 1.88,1.29 3.74,2.62 5.56,4.02 0.55,0.36 1.13,0.74 1.61,1.23 1.18,0.8 2.35,1.71 3.43,2.73 0.8,0.59 1.61,1.22 2.41,1.97 0.85,0.65 1.65,1.39 2.5,2.24 0.87,0.7 1.61,1.4 2.42,2.16 1.54,1.44 3.05,2.94 4.49,4.43 1.29,1.39 2.68,2.83 3.97,4.29 0.96,1.01 1.93,2.18 2.88,3.26 0.64,0.74 1.23,1.5 1.88,2.24 0.96,1.13 1.81,2.25 2.67,3.43 1.19,1.55 2.35,3.05 3.48,4.66 0.06,0.05 0.1,0.11 0.1,0.15 1.13,1.55 2.2,3.11 3.32,4.76 1.08,1.61 2.2,3.27 3.22,4.93 2.08,3.42 4.17,6.85 6.1,10.38 6.26,11.18 11.6,23.12 16.47,35.69 0.81,1.93 1.56,3.85 2.31,5.84l1.54 4.22c0.76,1.99 1.51,4.02 2.14,5.99 0.76,2.15 1.46,4.19 2.16,6.27 4.87,14.5 9.36,29.54 13.8,44.96 1.34,4.38 2.52,8.76 3.85,13.21 0.6,2.14 1.17,4.34 1.82,6.47 0.7,2.52 1.38,4.92 2.14,7.39 2.31,7.97 4.66,15.88 7.12,23.92l1.71 5.62c0.74,2.45 1.55,4.91 2.35,7.32 2.57,7.81 5.14,15.58 7.98,23.22 1.17,3.16 2.29,6.27 3.54,9.27 0.91,2.35 1.92,4.77 2.88,7.16 1.07,2.58 2.14,5.14 3.26,7.66 0.38,0.96 0.8,1.93 1.18,2.84 0.75,1.5 1.44,2.94 2.08,4.44 1.14,2.19 2.09,4.43 3.22,6.57 0.42,0.87 0.8,1.82 1.22,2.63 0.17,0.38 0.32,0.69 0.49,1.01 0.11,0.11 0.17,0.21 0.21,0.28 0.91,1.86 1.82,3.64 2.84,5.4 0.7,1.35 1.33,2.51 2.03,3.85 0.53,0.97 1.02,1.92 1.67,2.83 1.55,2.8 3.2,5.53 4.87,8.26 24.66,39.54 61.42,75.55 97.06,110.27 0,0.06 0.05,0.17 0.11,0.17 3.58,3.43 7.07,6.9 10.6,10.33 5.3,5.19 10.48,10.38 15.57,15.46 3.42,3.43 6.79,6.79 10.11,10.28 8.24,8.51 16.22,16.96 23.61,25.47 2.18,2.56 4.38,5.08 6.46,7.65 0.86,1.07 1.71,2.13 2.58,3.21 1.5,1.82 2.88,3.64 4.34,5.46 1.44,1.76 2.77,3.58 4.11,5.46 1.39,1.82 2.68,3.58 3.95,5.4 1.13,1.61 2.31,3.26 3.33,4.93 0.95,1.38 1.92,2.82 2.77,4.22 1.08,1.56 1.99,3.15 2.95,4.72 0.27,0.47 0.48,0.91 0.75,1.27 0.49,0.8 0.96,1.67 1.4,2.47l1.8 3.2c1.29,2.42 2.58,4.93 3.71,7.39 0.42,0.7 0.74,1.5 1.12,2.25 0.7,1.39 1.23,2.79 1.86,4.27 0.76,1.72 1.46,3.49 2.1,5.21 0.48,1.23 0.91,2.45 1.33,3.68 0.32,0.97 0.59,1.99 0.91,2.95 0.87,2.45 1.5,4.97 2.03,7.49 0.22,0.74 0.43,1.44 0.55,2.2 0.85,3.64 1.38,7.32 1.76,11.01 0.21,1.35 0.27,2.73 0.38,4.13 0.05,0.32 0.05,0.69 0.05,0.97 0.1,1.7 0.16,3.41 0.16,5.08l0 0.11c0,1.82 -0.06,3.64 -0.16,5.46zm-1302 -375.61c2.03,0.38 4.07,0.53 6.04,0.53 17.67,0 33.29,-12.73 36.28,-30.76 0.27,-1.55 0.59,-3.27 0.81,-4.93 4.44,-27.55 11.4,-70.63 73.73,-126.18 -1.7,7.06 -3.26,14.29 -4.64,21.78 -16.55,86.36 -6.48,153.68 29.81,200.08 27.81,35.59 65.37,55.02 103.64,55.02 12.31,0 24.88,-1.99 37.03,-6.22 45.17,-15.52 74.43,-56.51 74.65,-104.61 0.38,-104.99 -80.91,-190.24 -84.39,-193.88 -0.8,-0.81 -1.71,-1.6 -2.56,-2.35 -0.44,-0.38 -0.91,-0.75 -1.4,-1.13 -0.42,-0.31 -0.85,-0.69 -1.33,-0.95 -0.43,-0.38 -0.87,-0.65 -1.34,-0.87 -0.38,-0.31 -0.86,-0.59 -1.29,-0.85 -0.91,-0.54 -1.82,-1.01 -2.79,-1.5l-0.1 0c-0.96,-0.48 -1.98,-0.91 -2.99,-1.29 -0.7,-0.25 -1.34,-0.42 -1.99,-0.63 -0.57,-0.17 -1.17,-0.38 -1.76,-0.49 -0.91,-0.21 -1.88,-0.42 -2.73,-0.64l-2.84 -0.31c-2.13,-0.22 -4.33,-0.22 -6.47,0 -0.21,-0.07 -0.43,0 -0.59,0.04 -1.98,0.17 -3.9,0.53 -5.83,1.08 -0.38,0.1 -0.76,0.15 -1.08,0.32l-0.04 0c-0.91,0.21 -1.82,0.53 -2.73,0.91 -0.11,0 -0.17,0.04 -0.21,0.1 -1.08,0.43 -2.2,0.91 -3.22,1.4 -0.74,0.42 -1.44,0.8 -2.14,1.23 -1.33,0.85 -2.62,1.71 -3.85,2.73 -0.97,0.69 -1.93,1.54 -2.79,2.39 -14.61,14.08 -14.97,37.36 -0.9,51.97 0.64,0.7 64.05,67.75 63.73,142.45 0,1.06 -0.05,2.14 -0.11,3.16 0,0.32 -0.04,0.59 -0.11,0.91 -0.06,0.74 -0.16,1.54 -0.31,2.3 0,0.11 0,0.15 -0.06,0.26 0,0.32 -0.05,0.65 -0.16,1.02 -0.1,0.69 -0.27,1.35 -0.44,1.98 -0.1,0.49 -0.25,0.91 -0.36,1.4 -0.21,0.64 -0.38,1.33 -0.65,2.03 -0.05,0.26 -0.15,0.47 -0.26,0.7 -0.21,0.68 -0.49,1.33 -0.76,1.87 -0.21,0.48 -0.42,0.91 -0.64,1.39 -0.38,0.74 -0.8,1.55 -1.29,2.29 -0.1,0.38 -0.36,0.7 -0.57,0.97 -0.27,0.43 -0.49,0.85 -0.76,1.23 -0.26,0.38 -0.53,0.74 -0.85,1.08 -0.59,0.85 -1.12,1.65 -1.88,2.29 -0.47,0.54 -0.96,1.08 -1.49,1.61 -0.8,0.86 -1.77,1.65 -2.62,2.35 -0.27,0.21 -0.59,0.44 -0.91,0.7 -1.23,0.97 -2.58,1.82 -3.85,2.57 -0.76,0.47 -1.57,0.91 -2.25,1.23 -0.76,0.37 -1.5,0.7 -2.26,1.02 -0.8,0.32 -1.49,0.59 -2.24,0.85 -1.13,0.38 -2.14,0.64 -3.27,0.91 -1.07,0.32 -2.13,0.53 -3.21,0.7 -1.06,0.21 -2.14,0.38 -3.26,0.42 -16.92,1.4 -34.68,-8.02 -49.18,-26.48 -42.81,-54.79 -13.17,-168.03 7.17,-221.82 5.89,-0.15 11.78,-0.21 17.72,-0.21l2.35 0c6.1,0 12.2,0.11 18.25,0.21 5.61,0.11 11.29,0.28 16.96,0.49 0.8,0.06 1.65,0.06 2.46,0.11 5.41,0.21 10.75,0.48 16.17,0.75 0.15,0.05 0.32,0.05 0.53,0.05 5.94,0.27 11.94,0.7 17.93,1.12 11.87,0.91 23.71,1.93 35.48,3.26 5.82,0.55 11.66,1.29 17.55,2.04 4.81,0.59 9.57,1.24 14.33,1.92 0.06,0 0.17,0 0.21,0.06 2.04,0.28 4.13,0.53 6.22,0.85 8.51,1.23 16.9,2.58 25.26,4.13 3.09,0.42 6.1,1.01 9.09,1.61 0.33,0 0.65,0.04 0.91,0.15 4.33,0.7 8.61,1.61 12.9,2.47 11.29,2.25 22.53,4.66 33.66,7.27 2.99,0.75 6.04,1.45 9.09,2.2 0.55,0.1 1.08,0.27 1.61,0.42 1.12,0.21 2.09,0.49 3.21,0.8 1.98,0.49 4.01,0.97 6.04,1.51 8.57,2.2 17.08,4.55 25.53,7 3.22,0.97 6.37,1.82 9.59,2.84 0.95,0.27 1.92,0.53 2.94,0.86 2.77,0.85 5.46,1.7 8.24,2.57 3.36,1.01 6.73,2.08 10.05,3.26 3.37,1.02 6.75,2.2 10.01,3.26 2.04,0.7 4.01,1.4 6,2.09 2.45,0.85 4.93,1.72 7.32,2.57 3.7,1.33 7.45,2.62 11.09,4.02 3.58,1.33 7.11,2.67 10.65,4.06 3.52,1.34 7.01,2.67 10.54,4.13 7.01,2.71 13.91,5.61 20.75,8.61 3.49,1.45 6.9,2.95 10.33,4.49 1.08,0.49 2.2,0.91 3.16,1.45 3.05,1.33 6.05,2.67 8.99,4.06 3.05,1.4 6.05,2.73 8.94,4.17 2.73,1.35 5.5,2.69 8.23,4.02 2.37,1.08 4.72,2.31 7.03,3.43 2.03,1.06 4.06,2.03 6.09,3.09 2.08,1.02 4.18,2.14 6.25,3.28 2.16,1.12 4.24,2.19 6.33,3.31 2.46,1.23 4.87,2.58 7.16,3.91 2.58,1.4 5.14,2.78 7.6,4.17 6.58,3.64 13.06,7.33 19.43,11.18 2.73,1.56 5.4,3.22 8.13,4.93 3.96,2.46 7.98,4.92 12.04,7.43 3.96,2.52 7.88,5.09 11.77,7.66 86.75,67.26 153.95,150.05 194.09,242.36l0.17 0.31c0.59,1.02 2.98,5.4 2.98,5.4l2.8 5.25 1.12 2.2c0.74,1.44 1.5,2.84 2.2,4.34l0.21 0.36 1.76 4.07 0.53 0.55c0.27,0.53 1.35,2.83 1.35,2.83l0.11 0.15 3.89 8.03c0,0 1.78,3.91 2.52,5.46l3.05 7.07c0.64,1.39 1.23,2.83 1.93,4.65 0.42,0.91 1.77,4.12 1.77,4.12 0.43,1.01 2.67,6.64 2.99,7.44l0.49 1.38 0.38 0.81 1.27 3.53 1.88 5.08 2.99 8.26c0.48,1.44 1.02,2.88 1.5,4.49l0.38 2.13 0.96 1.78c0.48,1.49 0.91,2.99 1.39,4.53 0.49,1.57 0.96,2.95 1.4,4.45 0,0 1.12,3.64 1.38,4.5l1.45 5.13c1.6,5.57 2.89,10.71 4.07,15.79l0.1 0.43c0.49,1.82 0.91,3.7 1.45,5.88 0.1,0.49 1.71,7.77 1.71,7.77 0.32,1.71 0.74,3.37 0.96,4.97 0,0 1.45,7.01 1.45,7.33l0.11 0.64 0.26 1.18 0.27 1.55c0.27,1.82 0.59,3.59 0.91,5.46 0.48,2.9 0.95,5.78 1.33,8.51l0.17 1.5c0.21,1.61 0.47,3.26 0.64,4.91l0.1 0.66c0.38,2.29 0.6,4.65 0.91,7.32 0.17,1.4 0.7,6.37 0.7,6.37 0.27,2.84 0.53,5.57 0.74,8.3 0.22,2.84 0.44,5.72 0.6,8.24 0.16,2.2 0.27,4.38 0.38,6.58l0.04 0.38c0.06,1.23 0.27,5.99 0.27,5.99l0 1.97 0 0.66 0.06 0.68 0.16 6.22 0 7.05c0,189.81 -119.02,370.19 -318.18,482.52 -113.39,62.13 -241.61,100.02 -374.37,110.82l-0.06 0c-20.28,1.72 -40.61,2.79 -61.05,3.16 -2.52,0.06 -5.08,0.1 -7.66,0.1 -3.16,0.06 -6.25,0.06 -9.41,0.06l-0.91 0c-3.32,0 -6.69,0 -9.86,-0.06l-8.93 -0.15 -0.96 0 -2.41 -0.06c-1.29,0 -2.56,-0.04 -3.9,-0.1l-1.14 -0.05c-0.78,0 -1.54,-0.06 -2.6,-0.06 -6.38,-0.21 -12.69,-0.49 -19.27,-0.8 -2.52,-0.11 -5.1,-0.26 -7.77,-0.43l-1.86 -0.11c-7.81,-0.42 -15.58,-1.01 -23.39,-1.65 -4.93,-0.44 -9.85,-0.8 -14.78,-1.35l-0.74 -0.11c-2.03,-0.15 -4.02,-0.36 -6.05,-0.57l-0.43 -0.06c-1.22,-0.11 -2.41,-0.28 -3.89,-0.43 -1.57,-0.16 -5.53,-0.59 -5.53,-0.59 -1.06,-0.11 -2.24,-0.21 -3.36,-0.42l-10.86 -1.4c-3.49,-0.38 -6.91,-0.91 -10.44,-1.39l-6.75 -0.96c-2.14,-0.27 -4.28,-0.64 -6.48,-0.97 0,0 -1.17,-0.21 -2.45,-0.43 -0.16,0 -0.32,0 -0.6,-0.04 -153.67,-16.28 -293.66,-66.9 -406.79,-141.6 -145.76,-113.18 -236.26,-269.91 -236.26,-442.87 0,-294.74 262.59,-542.39 614.49,-607.52 -0.38,0.44 -0.76,0.8 -1.24,1.29 -15.95,17.29 -29.05,34.99 -39.49,53.19 -21.51,37.56 -26.44,68.38 -29.76,88.77 -0.26,1.61 -0.53,3.11 -0.74,4.51 -3.32,20.06 10.22,39.06 30.29,42.32zm-329.53 -350.34c3.54,-2.58 7.22,-5.08 10.8,-7.49 5.25,-3.6 10.44,-7.12 15.8,-10.55 3.32,-2.2 6.68,-4.33 10.01,-6.41l0.04 0c8.09,-5.14 16.28,-10.18 24.51,-15.05 8.35,-4.87 16.71,-9.57 25.15,-14.18 5.62,-3.16 11.35,-6.21 17.02,-9.09 3.64,-1.82 7.18,-3.75 10.86,-5.52 3.58,-1.82 7.23,-3.58 10.87,-5.35 3.64,-1.81 7.32,-3.52 11.02,-5.3 3.64,-1.71 7.28,-3.43 11.03,-5.13 2.94,-1.35 5.93,-2.68 8.94,-3.95 5.93,-2.69 11.92,-5.25 18.03,-7.71 6.04,-2.52 12.09,-5.04 18.19,-7.39 6.2,-2.41 12.3,-4.76 18.52,-7.07 6.14,-2.24 12.41,-4.49 18.67,-6.69 3.1,-1.07 6.27,-2.09 9.47,-3.21 13.92,-4.6 28.04,-8.98 42.38,-13.05 3.38,-0.91 6.79,-1.88 10.22,-2.79 2.1,-0.63 4.23,-1.17 6.37,-1.76 2.73,-0.69 5.51,-1.45 8.3,-2.14 2.03,-0.48 4.07,-1.01 6.1,-1.5 3.15,-0.86 6.37,-1.54 9.52,-2.35 4.92,-1.12 9.89,-2.3 14.89,-3.38 2.94,-0.68 5.93,-1.34 8.98,-1.97 13.48,-2.79 27.07,-5.4 40.77,-7.66 3.59,-0.64 7.17,-1.23 10.81,-1.76 3.58,-0.53 7.18,-1.13 10.82,-1.66 6.14,-0.86 12.36,-1.71 18.57,-2.47 3.42,-0.47 6.84,-0.85 10.33,-1.27 3.2,-0.38 6.46,-0.76 9.73,-1.02 5.62,-0.59 11.18,-1.18 16.8,-1.67 2.79,-0.26 5.56,-0.47 8.35,-0.7 4.81,-0.36 9.68,-0.74 14.55,-1.06 5.73,-0.38 11.51,-0.7 17.34,-0.97 2.09,-0.1 4.17,-0.15 6.26,-0.26 3.54,-0.16 7.07,-0.31 10.61,-0.38 10.58,-0.37 21.29,-0.53 31.94,-0.53 227.79,0 435.69,75.94 593.01,200.61 -20.33,-0.85 -40.82,-1.02 -61.1,-1.23 -13.23,-0.1 -26.5,-0.32 -39.76,-0.59 -4.4,-0.11 -8.78,-0.21 -13.16,-0.36 -4.4,-0.17 -8.73,-0.38 -13.13,-0.55 -3.58,-0.15 -7.22,-0.32 -10.75,-0.53 -15.2,-0.85 -30.06,-2.19 -44.31,-4.17 -1.86,-0.28 -3.79,-0.49 -5.61,-0.81 -2.41,-0.31 -4.82,-0.74 -7.22,-1.18 -6.33,-1.06 -12.47,-2.4 -18.52,-3.79 -2.99,-0.74 -5.99,-1.44 -8.94,-2.31 -1.33,-0.32 -2.56,-0.74 -3.96,-1.12 -1.07,-0.32 -2.19,-0.7 -3.36,-1.02 -10.82,-3.47 -21.68,-7.85 -32.71,-13 -2.51,-1.22 -4.97,-2.41 -7.49,-3.68 -0.36,-0.12 -0.7,-0.27 -1.02,-0.49 -2.88,-1.44 -5.71,-2.83 -8.61,-4.38 -2.19,-1.14 -4.33,-2.26 -6.52,-3.49 -2.42,-1.23 -4.77,-2.62 -7.18,-3.96 -1.65,-0.95 -3.32,-1.86 -5.02,-2.88 -3.28,-1.82 -6.48,-3.7 -9.75,-5.63 -14.55,-8.61 -29.43,-17.93 -44.52,-27.39 -72.51,-45.54 -147.58,-92.58 -238.55,-92.58 -91.03,0 -166,47.04 -238.56,92.58 -19.05,11.93 -37.68,23.6 -55.92,34.04 -2.14,1.16 -4.24,2.35 -6.31,3.47 -8.2,4.6 -16.33,8.83 -24.41,12.74 -1.97,0.91 -3.96,1.87 -5.99,2.78 -1.97,0.97 -4.01,1.82 -5.99,2.67 -5.25,2.3 -10.59,4.4 -15.84,6.32 -5.19,1.87 -10.5,3.58 -15.73,5.02 -2.9,0.87 -5.84,1.57 -8.89,2.31 -5.99,1.39 -12.2,2.73 -18.52,3.79 -2.35,0.44 -4.76,0.87 -7.22,1.18 -1.76,0.32 -3.54,0.53 -5.4,0.81 -14.35,1.98 -29.22,3.32 -44.52,4.17 -3.38,0.21 -6.86,0.38 -10.29,0.48 -0.15,0.05 -0.36,0.05 -0.57,0.05 -4.34,0.17 -8.62,0.38 -13.02,0.55 -4.38,0.15 -8.76,0.25 -13.15,0.36 -13.23,0.27 -26.54,0.49 -39.71,0.59 -16.22,0.17 -32.6,0.32 -48.8,0.81 -5.41,0.1 -10.81,0.31 -16.21,0.53 13.21,-10.42 26.75,-20.6 40.66,-30.28zm1583.47 504.83c-33.92,-33.17 -65.98,-64.44 -85.93,-96.53 -0.91,-1.4 -1.71,-2.73 -2.58,-4.19 -10.91,-38.85 -25.09,-77 -42.32,-114.4l0 -0.05c-21.78,-76.27 -46.55,-162.62 -122.87,-213.68 -12.25,-8.3 -25.36,-15.03 -39.06,-20.6 -16.38,-16.85 -33.55,-33.17 -51.59,-49.07 -89.14,-78.5 -192.96,-140.1 -308.65,-183.18 -119.71,-44.56 -246.86,-67.2 -377.9,-67.2 -131.06,0 -258.2,22.64 -378.02,67.2 -115.63,43.08 -219.45,104.68 -308.55,183.18 -18.99,16.64 -37.02,33.93 -54.19,51.8 -11.46,4.92 -22.44,10.92 -32.86,17.87 -69.84,46.66 -96.49,123.08 -117.25,194.08 -1.23,2.69 -2.52,5.36 -3.8,7.98 -21.35,44.42 -38.27,90.01 -50.63,136.46 -20.11,29.85 -50.24,59.3 -81.93,90.33 -64.8,63.36 -131.84,128.91 -131.84,215.66 0,86.73 67.04,152.23 131.84,215.59 33.88,33.17 65.94,64.48 85.89,96.49 20.17,32.31 32.17,74.26 44.85,118.68 10.48,36.49 21.56,75.23 38.68,111.37 15.79,33.38 36.71,64.59 67,89.52 5.4,4.49 11.18,8.77 17.19,12.79 67.53,45.16 157.97,46.13 245.4,47.08l2.2 0c18.51,0 44.19,-2.24 69.46,-5.93l0.04 0c24.89,-3.64 49.39,-8.72 66.14,-14.45 0.7,0.32 1.39,0.63 2.15,0.91 27.99,11.56 35.63,13.1 76.89,25.63 2.78,0.85 5.62,1.72 8.51,2.52 1.34,0.36 2.67,0.74 3.96,1.17 10.48,3.05 21.3,5.99 32.37,8.89 2.2,0.63 4.45,1.12 6.69,1.71 3.64,0.91 7.22,1.76 10.92,2.67 2.04,0.49 4.13,0.97 6.21,1.5 5.14,1.29 10.49,2.46 15.83,3.64 1.82,0.38 3.64,0.75 5.42,1.17 9.25,2.05 18.61,3.91 28.14,5.73 1.88,0.28 3.7,0.7 5.52,1.02 3.52,0.7 7.01,1.29 10.54,1.87 2.08,0.44 4.22,0.76 6.36,1.13 4.55,0.69 9.1,1.49 13.71,2.19 2.29,0.38 4.53,0.7 6.9,1.08 2.29,0.31 4.66,0.69 6.95,1.01 4.71,0.64 9.42,1.28 14.13,1.93 1.87,0.21 3.74,0.42 5.62,0.7 1.12,0.1 2.2,0.25 3.32,0.31 2.56,0.37 5.19,0.7 7.81,0.91 1.55,0.22 3.1,0.43 4.66,0.6 2.39,0.21 4.81,0.47 7.26,0.68 2.42,0.27 4.87,0.48 7.28,0.76 2.2,0.15 4.39,0.36 6.54,0.53 7.6,0.74 15.25,1.23 22.95,1.76 11.77,0.8 23.76,1.35 35.76,1.61 0.68,0.06 1.38,0.06 2.03,0.06 2.73,0.04 5.5,0.15 8.34,0.21 2.78,0 5.51,0.04 8.3,0.04 3.37,0.07 6.73,0.07 10.16,0.07l0.97 0c20.97,-0.07 41.52,-0.75 61.75,-2.14 2.78,-0.22 5.51,-0.43 8.18,-0.64 2.52,-0.11 4.98,-0.27 7.49,-0.49 1.82,-0.16 3.6,-0.31 5.3,-0.48 1.77,-0.17 3.43,-0.27 5.31,-0.49 12.83,-1.12 25.51,-2.56 38.04,-4.17 3.91,-0.48 7.81,-0.95 11.72,-1.5 7.27,-1.02 14.55,-2.08 21.73,-3.26 2.35,-0.38 4.76,-0.74 7.17,-1.12 2.35,-0.38 4.76,-0.81 7.12,-1.23 2.41,-0.43 4.76,-0.75 7.05,-1.23 2.37,-0.38 4.72,-0.87 7.07,-1.29l9.84 -1.87c2.84,-0.59 5.63,-1.07 8.47,-1.66 7.37,-1.45 14.76,-3.1 22.04,-4.71l6.41 -1.39c0.97,-0.26 1.99,-0.49 2.95,-0.7 2.2,-0.53 4.44,-1.02 6.58,-1.55 2.24,-0.53 4.44,-1.07 6.69,-1.61 6.79,-1.65 13.59,-3.36 20.23,-5.08 2.14,-0.59 4.22,-1.12 6.31,-1.71 0.91,-0.21 1.93,-0.49 2.9,-0.74 2.03,-0.55 4.11,-1.13 6.2,-1.67 3.48,-1.02 7.01,-2.04 10.55,-2.99 3.64,-1.08 7.32,-2.14 10.9,-3.22 2.16,-0.59 4.3,-1.23 6.33,-1.86 39.06,-11.77 47.19,-13.59 72.72,-23.82 1.5,-0.7 3.05,-1.33 4.76,-1.98 12.85,4.33 30.08,8.29 48.59,11.66 30.56,5.63 64.54,9.31 87.66,9.31l2.03 0c87.43,-0.95 177.87,-1.92 245.29,-47.08 9.47,-6.33 18.08,-13.12 26.06,-20.39 13.55,-12.47 25,-26.22 35,-40.89 2.09,-3.05 4.06,-6.1 5.99,-9.3 25.63,-41.15 40.14,-88.46 52.98,-133.09 0.96,-3.32 1.93,-6.63 2.84,-10.01 12.79,-44.42 24.73,-86.37 44.9,-118.68 19.95,-32.01 52.01,-63.32 85.93,-96.49 64.76,-63.36 131.8,-128.86 131.8,-215.59 0,-86.75 -67.04,-152.3 -131.8,-215.66z"/>
  <path class="fil1" d="M7322.23 2529.02c-33.94,33.19 -65.93,64.49 -85.89,96.55 -20.17,32.27 -32.16,74.22 -44.9,118.64 -0.97,3.36 -1.88,6.69 -2.9,9.99 -12.78,44.63 -27.33,91.94 -52.92,133.09 -1.93,3.22 -3.96,6.27 -6.04,9.32 -9.95,14.71 -21.46,28.41 -34.99,40.88 -7.92,7.32 -16.54,14.07 -26.02,20.45 -67.47,45.09 -157.86,46.06 -245.29,47.08l-2.03 0c-23.18,0 -57.16,-3.75 -87.71,-9.31 -18.52,-3.43 -35.75,-7.39 -48.54,-11.71 -1.71,0.68 -3.32,1.27 -4.81,1.97 -25.53,10.22 -33.66,12.09 -72.67,23.81 -2.09,0.64 -4.23,1.29 -6.37,1.93 -3.58,1.01 -7.22,2.14 -10.92,3.15 -3.48,1.02 -7.06,1.99 -10.55,3.01 -2.07,0.57 -4.11,1.12 -6.14,1.65 -1.02,0.27 -1.99,0.53 -2.94,0.8 -2.09,0.54 -4.19,1.07 -6.27,1.66 -6.64,1.71 -13.44,3.43 -20.28,5.14 -2.24,0.49 -4.44,1.02 -6.69,1.55 -2.14,0.59 -4.38,1.01 -6.52,1.56 -1.03,0.21 -1.99,0.42 -3,0.68l-6.42 1.4c-7.28,1.67 -14.61,3.26 -22.05,4.72 -2.84,0.57 -5.57,1.12 -8.41,1.65l-9.89 1.92c-2.36,0.38 -4.71,0.85 -7.07,1.23 -2.3,0.49 -4.65,0.87 -7,1.23 -2.36,0.43 -4.77,0.87 -7.12,1.23 -2.41,0.44 -4.82,0.8 -7.23,1.12 -7.16,1.19 -14.44,2.26 -21.66,3.28 -3.96,0.58 -7.88,1.02 -11.78,1.49 -12.46,1.67 -25.21,3.06 -38.05,4.18 -1.82,0.22 -3.48,0.32 -5.3,0.47 -1.71,0.17 -3.47,0.34 -5.25,0.49 -2.5,0.21 -5.02,0.38 -7.54,0.53 -2.66,0.21 -5.35,0.44 -8.13,0.59 -20.23,1.4 -40.83,2.14 -61.75,2.14l-1.01 0c-3.39,0 -6.8,0 -10.12,0 -2.79,0 -5.57,-0.05 -8.34,-0.05 -2.8,-0.06 -5.57,-0.16 -8.36,-0.21 -0.64,0 -1.28,0 -1.97,-0.06 -12.05,-0.32 -23.99,-0.85 -35.76,-1.65 -7.75,-0.49 -15.35,-1.02 -23.01,-1.78 -2.14,-0.15 -4.34,-0.36 -6.52,-0.53 -2.41,-0.21 -4.87,-0.42 -7.28,-0.7 -2.41,-0.25 -4.81,-0.53 -7.22,-0.74 -1.61,-0.17 -3.16,-0.38 -4.66,-0.59 -2.68,-0.21 -5.29,-0.49 -7.87,-0.85 -1.06,-0.11 -2.19,-0.27 -3.26,-0.38 -1.87,-0.27 -3.79,-0.48 -5.68,-0.7 -4.7,-0.63 -9.35,-1.29 -14.07,-1.92 -2.29,-0.32 -4.66,-0.7 -6.95,-0.96 -2.37,-0.38 -4.61,-0.76 -6.9,-1.14 -4.61,-0.68 -9.21,-1.44 -13.76,-2.18 -2.09,-0.38 -4.23,-0.7 -6.31,-1.12 -3.59,-0.55 -7.07,-1.19 -10.54,-1.88 -1.88,-0.32 -3.7,-0.7 -5.57,-1.02 -9.52,-1.76 -18.84,-3.69 -28.09,-5.72 -1.82,-0.38 -3.64,-0.76 -5.46,-1.18 -5.36,-1.17 -10.65,-2.35 -15.84,-3.64 -2.09,-0.49 -4.17,-1.02 -6.22,-1.5 -3.62,-0.85 -7.26,-1.76 -10.86,-2.67 -2.24,-0.54 -4.49,-1.07 -6.69,-1.72 -11.07,-2.88 -21.87,-5.82 -32.41,-8.87 -1.29,-0.44 -2.58,-0.81 -3.98,-1.14 -2.88,-0.85 -5.66,-1.7 -8.49,-2.56 -41.26,-12.52 -48.86,-14.08 -76.91,-25.64 -0.7,-0.26 -1.44,-0.53 -2.14,-0.85 -16.74,5.68 -41.19,10.76 -66.13,14.4l-0.06 0c-25.26,3.74 -50.94,5.99 -69.46,5.99l-2.2 0c-87.43,-1.02 -177.87,-1.99 -245.4,-47.08 -5.99,-4.09 -11.71,-8.36 -17.17,-12.85 -30.25,-24.89 -51.21,-56.08 -67,-89.48 -17.07,-36.12 -28.15,-74.91 -38.7,-111.4 -12.68,-44.42 -24.66,-86.37 -44.78,-118.64 -20.02,-32.06 -52.01,-63.36 -85.94,-96.55 -64.8,-63.34 -131.85,-128.84 -131.85,-215.53 0,-86.75 67.05,-152.35 131.85,-215.71 31.73,-31.04 61.81,-60.42 81.92,-90.33 12.41,-46.45 29.28,-92.05 50.68,-136.46 1.23,-2.63 2.52,-5.3 3.8,-7.92 20.76,-71.01 47.41,-147.47 117.19,-194.08 10.5,-7.01 21.46,-12.96 32.92,-17.93 17.17,-17.87 35.2,-35.1 54.15,-51.81 89.1,-78.49 192.96,-140.08 308.59,-183.16 119.77,-44.58 246.92,-67.21 377.96,-67.21 131.1,0 258.25,22.63 377.96,67.21 115.63,43.08 219.45,104.67 308.61,183.16 18.02,15.9 35.25,32.28 51.57,49.08 13.7,5.56 26.82,12.31 39.12,20.66 76.32,50.99 101.04,137.36 122.87,213.62l0 0.04c17.23,37.41 31.41,75.57 42.32,114.47 0.81,1.39 1.67,2.73 2.58,4.17 19.96,32.06 51.95,63.31 85.89,96.49 64.8,63.36 131.84,128.96 131.84,215.71 0,86.69 -67.04,152.19 -131.84,215.53zm38.68 -470.73l-0.22 -0.23c-30.44,-29.68 -59.23,-57.9 -75.93,-83.52 -10.32,-35.22 -23.06,-70 -38.04,-103.81l0 -1.46 -3.65 -7.11c-23.01,-80.15 -52.6,-178.19 -143.78,-239.2 -11.66,-7.75 -24.41,-14.88 -37.94,-21.02 -15.14,-15.26 -30.93,-30.08 -46.97,-44.16 -94.19,-82.88 -203.84,-148.01 -325.8,-193.49 -125.96,-46.89 -259.63,-70.64 -397.27,-70.64 -137.62,0 -271.25,23.75 -397.22,70.64 -122.05,45.48 -231.64,110.61 -325.89,193.49 -17.44,15.41 -34.23,31.31 -50.09,47.36 -10.9,5.35 -21.29,11.3 -31.14,17.88 -83.21,55.6 -115.26,142.33 -138.17,220.04 -0.68,1.4 -1.33,2.73 -1.97,4.17 -21.3,44.21 -38.59,90.01 -51.53,136.36 -17.12,23.16 -42.76,48.16 -69.73,74.53l-0.11 0.17c-69.56,68.06 -148.44,145.17 -148.44,255.2 0,109.91 78.88,187.08 148.44,255.03l0.16 0.22c31.41,30.65 61.06,59.65 77.54,86.05 15.96,25.68 26.92,63.99 38.53,104.56l0.1 0.27c10.71,37.24 22.8,79.45 41.75,119.59 21.46,45.32 48.2,80.8 81.82,108.53 6.84,5.66 14.07,11.01 21.57,16.05 81.23,54.37 184.34,55.44 275.42,56.46l2.94 0c19.96,0 46.51,-2.14 73.42,-5.99l0.1 0 4.02 -0.55c15.57,-2.29 36.01,-5.82 55.28,-10.75 15.68,6.05 27.07,9.42 46.61,15.3 5.51,1.61 11.82,3.54 19.26,5.74 2.99,0.95 6.04,1.82 9.15,2.73l0.17 0.1 0.26 0.05c0.97,0.32 2.09,0.59 3.05,0.86l0.27 0.11 0.27 0.04c11.39,3.33 22.74,6.42 33.87,9.32 2.25,0.59 4.71,1.23 7.22,1.82 3.69,0.95 7.44,1.86 11.29,2.83l0.11 0 0.1 0 2.47 0.64c1.23,0.32 2.46,0.59 3.69,0.87 5.08,1.22 10.44,2.39 16.49,3.79 1.92,0.42 3.9,0.8 5.88,1.23 9.32,2.03 19.27,4.06 29.54,5.99l1.88 0.38 3.68 0.7c3.8,0.74 7.65,1.39 11.4,2.03 2.2,0.42 4.44,0.85 6.75,1.18 4.49,0.74 9.36,1.55 14.22,2.29l0.11 0 0.17 0 3.05 0.49c1.33,0.21 2.56,0.42 3.85,0.63l3.79 0.55 3.22 0.47 0.32 0.06 0.27 0 0.48 0.05c4.77,0.69 9.42,1.35 14.13,1.92l5.71 0.7c1.4,0.17 2.63,0.32 3.81,0.44 2.73,0.36 5.4,0.68 8.09,0.96l5.12 0.59c2.42,0.21 4.87,0.53 7.45,0.74 2.5,0.27 5.08,0.55 7.6,0.76l0.26 0 0.21 0.04 2.84 0.28c1.23,0.1 2.52,0.21 3.75,0.32 7.91,0.69 16.06,1.29 24.13,1.82 12.47,0.74 25.15,1.39 37.62,1.71 0.8,0 1.71,0.05 2.52,0.05 2.83,0.1 5.73,0.16 8.57,0.21l0.42 0 2.56 0c1.93,0.06 3.92,0.06 5.84,0.06 3.48,0.04 7.01,0.11 10.55,0.11l1.01 0c21.94,-0.11 43.93,-0.91 65.44,-2.31 2.9,-0.21 5.84,-0.42 8.72,-0.64 2.46,-0.21 5.08,-0.38 7.71,-0.59l5.46 -0.48c2.03,-0.11 4.02,-0.32 5.99,-0.47 14.18,-1.35 27.14,-2.73 39.61,-4.34 4.17,-0.53 8.28,-1.13 12.4,-1.66 7.39,-1.01 14.82,-2.15 22.7,-3.38 2.62,-0.42 5.18,-0.8 7.81,-1.27 2.56,-0.38 5.03,-0.81 7.54,-1.29l5.35 -0.97 1.5 -0.22c1.66,-0.25 3.43,-0.57 5.04,-0.91l2.35 -0.42c3.75,-0.7 7.39,-1.34 10.91,-2.08l7.7 -1.5 0.66 -0.11c7.7,-1.56 15.51,-3.26 23.32,-5.03l1.82 -0.38c1.76,-0.37 3.54,-0.74 5.36,-1.17l0.68 -0.17c0.76,-0.15 1.46,-0.36 2.16,-0.53 2.29,-0.53 4.43,-0.97 6.62,-1.5 1.72,-0.42 3.37,-0.85 4.98,-1.23l1.88 -0.42c7.27,-1.82 14.44,-3.6 21.34,-5.4l6.59 -1.72 3.42 -0.97c2.08,-0.59 4.18,-1.12 6.21,-1.71 3.68,-1.02 7.33,-1.97 10.92,-3.05 3.79,-1.02 7.65,-2.18 11.5,-3.37 1.61,-0.42 3.11,-0.91 4.61,-1.39l1.87 -0.49c7.49,-2.29 13.75,-4.17 19.21,-5.82 19.15,-5.62 30.02,-8.89 45.16,-14.61 10.65,2.77 22.63,5.29 35.91,7.7 34.99,6.42 71.44,10.23 97.61,10.23l2.56 0 0.17 0c91.07,-1.02 194.19,-2.09 275.31,-56.41 11.51,-7.65 22.48,-16.33 32.64,-25.62 15.95,-14.63 30.55,-31.63 43.4,-50.58 2.46,-3.53 4.87,-7.28 7.33,-11.24 28.85,-46.55 44.9,-97.97 58.91,-146.68 0.87,-2.94 1.72,-5.82 2.58,-8.72l0.37 -1.49c11.72,-40.73 22.69,-79.04 38.69,-104.68 16.54,-26.59 46.19,-55.59 77.65,-86.31 69.56,-67.95 148.44,-145.12 148.44,-255.03 0,-110.03 -78.88,-187.14 -148.39,-255.2z"/>
  <path class="fil2" d="M7370.46 2313.35l0 0.11c0,1.78 -0.06,3.6 -0.16,5.46 -0.05,1.29 -0.22,2.52 -0.32,3.85 -0.11,0.91 -0.17,1.88 -0.32,2.8 -0.11,0.95 -0.27,1.92 -0.38,2.83 -0.11,0.74 -0.21,1.49 -0.32,2.25 -0.27,1.5 -0.59,2.94 -0.97,4.44 -0.32,1.55 -0.68,3.1 -1.06,4.7 -0.11,0.43 -0.28,0.87 -0.38,1.34 -0.43,1.5 -0.91,3.05 -1.44,4.55 -0.53,1.82 -1.19,3.59 -1.82,5.29 -0.64,1.78 -1.34,3.54 -2.1,5.36 -0.74,1.71 -1.54,3.43 -2.35,5.14 -0.8,1.82 -1.65,3.53 -2.56,5.29 -1.78,3.43 -3.7,6.91 -5.73,10.33 -1.13,1.82 -2.14,3.48 -3.27,5.19 -4.44,6.86 -9.25,13.76 -14.65,20.6 -1.29,1.67 -2.68,3.38 -4.06,5.14 -4.13,5.08 -8.51,10.17 -13.12,15.31 -1.51,1.65 -3.05,3.37 -4.6,5.08 -3.11,3.43 -6.31,6.79 -9.59,10.22 -1.97,2.14 -4.06,4.28 -6.1,6.37 -2.07,2.14 -4.23,4.28 -6.31,6.42l-2.56 2.56c-8.51,8.51 -17.29,17.13 -26.23,25.81 -35.64,34.82 -72.4,70.85 -97.06,110.33 -1.88,3.05 -3.75,6.21 -5.52,9.42 -1.23,2.1 -2.35,4.13 -3.43,6.16 -1.38,2.57 -2.72,5.19 -4.01,7.75 -0.06,0.22 -0.21,0.43 -0.27,0.59 -0.7,1.29 -1.23,2.46 -1.86,3.75 -1.29,2.67 -2.58,5.46 -3.75,8.24 -0.65,1.39 -1.29,2.83 -1.88,4.17 -1.17,2.84 -2.35,5.57 -3.48,8.4 -2.3,5.74 -4.44,11.41 -6.52,17.19 -1.12,2.88 -2.09,5.82 -3.11,8.72 -0.95,2.88 -1.98,5.83 -2.88,8.77 -1.67,4.87 -3.22,9.95 -4.72,14.92 -0.32,0.87 -0.63,1.82 -0.91,2.73 -0.91,2.95 -1.76,5.89 -2.62,8.89 -0.85,2.84 -1.76,5.84 -2.63,8.83 -1.44,5.04 -2.88,10.06 -4.32,15.09 -0.27,0.91 -0.44,1.66 -0.7,2.57 -1.33,4.44 -2.51,8.83 -3.85,13.23 -6.96,24.07 -14.03,47.56 -22.63,69.24 -0.7,1.76 -1.46,3.58 -2.2,5.29 -0.97,2.25 -1.93,4.49 -2.9,6.69 -0.74,1.82 -1.54,3.54 -2.35,5.3 -2.62,5.67 -5.4,11.07 -8.34,16.38 -1.93,3.52 -4.02,7.01 -6.1,10.32 -2.2,3.53 -4.5,6.96 -6.96,10.28 -0.43,0.64 -0.91,1.27 -1.4,1.97 -1.76,2.31 -3.53,4.66 -5.4,6.86 -1.23,1.5 -2.52,2.88 -3.79,4.38 -1.29,1.44 -2.68,2.9 -3.97,4.28 -1.6,1.67 -3.37,3.32 -5.02,4.93 -1.29,1.17 -2.63,2.35 -3.96,3.53 -1.23,1.07 -2.52,2.14 -3.75,3.1 -0.17,0.16 -0.38,0.32 -0.59,0.48 -1.29,1.08 -2.67,2.14 -4.07,3.16 -1.65,1.23 -3.36,2.41 -5.03,3.53 -45.59,30.51 -118.58,31.25 -195.85,32.11 -7.07,0.05 -14.18,0.16 -21.29,0.22 5.44,-3.05 10.96,-6.16 16.32,-9.38 4.53,-2.61 9.08,-5.34 13.53,-8.07 5.57,-3.36 11.07,-6.79 16.53,-10.33 3.81,-2.45 7.6,-4.93 11.41,-7.38 0.85,-0.64 1.82,-1.23 2.73,-1.87 4.17,-2.79 8.45,-5.63 12.57,-8.57 4.71,-3.22 9.3,-6.52 13.91,-9.78l0.05 0c4.61,-3.39 9.1,-6.75 13.65,-10.23 4.55,-3.37 9.04,-6.85 13.49,-10.33 3.79,-3 7.6,-6.05 11.34,-9.1 2.57,-2.08 5.13,-4.17 7.65,-6.31 6.05,-5.08 12.04,-10.22 17.88,-15.37 2.35,-2.07 4.76,-4.21 7.06,-6.35l1.56 -1.4c0.26,-0.27 0.57,-0.53 0.85,-0.8 1.5,-1.4 3.05,-2.73 4.49,-4.17 1.23,-1.12 2.36,-2.25 3.59,-3.32 11.92,-11.29 23.38,-22.85 34.34,-34.62 2.05,-2.14 4.02,-4.29 6.01,-6.48 0.58,-0.65 1.23,-1.33 1.87,-2.09 2.09,-2.3 4.12,-4.55 6.05,-6.84 2.03,-2.26 3.96,-4.44 5.88,-6.69 4.01,-4.72 7.97,-9.48 11.82,-14.18 1.71,-2.1 3.43,-4.23 5.1,-6.31 1.54,-2.05 3.2,-4.08 4.76,-6.05l6.9 -9.11c1.87,-2.45 3.63,-4.91 5.4,-7.32 1.55,-2.1 2.99,-4.13 4.45,-6.21 1.71,-2.3 3.3,-4.65 4.91,-6.96 1.82,-2.67 3.7,-5.4 5.52,-8.13 1.82,-2.73 3.64,-5.46 5.34,-8.13 1.67,-2.47 3.32,-5.04 4.83,-7.55 1.6,-2.52 3.21,-5.02 4.7,-7.54 3.15,-5.08 6.16,-10.18 9.05,-15.37 1.55,-2.56 3.05,-5.02 4.39,-7.64 1.44,-2.58 2.88,-5.19 4.28,-7.82 1.44,-2.68 2.89,-5.41 4.27,-8.08 1.72,-3.43 3.54,-6.8 5.19,-10.22 1.46,-2.95 2.84,-5.94 4.29,-8.88 0.22,-0.44 0.43,-0.86 0.64,-1.35 0.32,-0.68 0.64,-1.33 0.97,-2.03 1.12,-2.29 2.14,-4.6 3.2,-6.95 0.21,-0.42 0.38,-0.86 0.59,-1.33 0.06,-0.17 0.11,-0.34 0.22,-0.55 1.54,-3.26 2.89,-6.52 4.27,-9.84 30.83,-71.77 46.4,-146.84 46.4,-223.79 0,-20.22 -1.12,-40.35 -3.26,-60.31 -4.97,-45.96 -15.51,-90.97 -31.73,-134.96 -3.22,-8.82 -6.69,-17.55 -10.33,-26.27 -7.33,-17.34 -15.58,-34.51 -24.72,-51.53 -2.84,-5.18 -5.62,-10.33 -8.62,-15.47 -1.44,-2.56 -2.94,-5.13 -4.49,-7.64 -1.46,-2.58 -3,-5.15 -4.55,-7.66 -0.8,-1.23 -1.5,-2.57 -2.35,-3.75 -0.55,-0.91 -1.02,-1.71 -1.56,-2.56 -1.87,-2.95 -3.69,-5.89 -5.62,-8.79 -1.6,-2.45 -3.26,-4.97 -4.93,-7.47l-4.97 -7.39c-5.08,-7.34 -10.38,-14.72 -15.78,-21.95 -37.89,-50.51 -83.81,-97.13 -137.15,-139.13 -81.02,-63.78 -175.26,-113.76 -280.14,-148.71 -27.08,-8.98 -54.64,-16.86 -82.46,-23.65 -10.39,-2.56 -20.93,-4.98 -31.47,-7.18 -73.9,-15.62 -150.16,-23.43 -227.9,-23.43 -77.75,0 -154.01,7.81 -227.91,23.43 -10.5,2.2 -20.98,4.62 -31.47,7.18 -27.88,6.79 -55.38,14.67 -82.46,23.65 -104.83,34.95 -199.12,84.93 -280.14,148.71 -81.29,64 -145.28,138.66 -190.02,221.81 -1.5,2.84 -3,5.72 -4.44,8.51 -1.5,2.84 -2.94,5.72 -4.38,8.62 -1.4,2.78 -2.74,5.67 -4.18,8.55 -0.27,0.49 -0.53,1.13 -0.8,1.72 -2.2,4.59 -4.34,9.21 -6.42,13.8 -2.26,5.04 -4.44,10.12 -6.53,15.26 -0.7,1.82 -1.51,3.69 -2.31,5.61 -0.91,2.31 -1.81,4.66 -2.72,7.01l-3.32 8.79c-1.07,2.98 -2.09,5.88 -3.15,8.82 -0.65,1.82 -1.29,3.69 -1.88,5.51 -0.53,1.71 -1.17,3.37 -1.72,5.14 -1.54,4.7 -3.05,9.42 -4.43,14.18 -0.75,2.4 -1.45,4.71 -2.09,7.12 -0.8,2.73 -1.55,5.4 -2.24,8.02 -0.6,2.1 -1.13,4.23 -1.67,6.37 -0.64,2.35 -1.23,4.71 -1.82,7.12 -1.17,4.76 -2.25,9.57 -3.31,14.39 -0.06,0.32 -0.11,0.64 -0.21,0.96 -0.7,3.32 -1.35,6.64 -1.99,9.9 -0.64,3.27 -1.29,6.54 -1.82,9.8 -0.15,0.59 -0.21,1.17 -0.38,1.82 -0.68,4.01 -1.27,8.03 -1.93,12.03 -0.63,4.23 -1.22,8.41 -1.69,12.58 -0.07,0.1 -0.07,0.27 -0.07,0.44 -0.53,4.21 -1.07,8.45 -1.5,12.72 -0.25,2.14 -0.42,4.28 -0.59,6.37 -0.26,2.14 -0.42,4.28 -0.58,6.42 -0.1,0.97 -0.16,1.93 -0.21,2.9 -0.06,0.91 -0.16,1.86 -0.22,2.83 -0.05,0.43 -0.05,0.85 -0.11,1.34 -0.11,1.39 -0.15,2.84 -0.26,4.28 -0.17,2.83 -0.38,5.67 -0.42,8.51 -0.13,2.35 -0.17,4.65 -0.28,7 -0.21,6.22 -0.32,12.43 -0.32,18.63 0,94.67 23.55,186.59 69.99,273.02 2.14,3.96 4.28,7.86 6.53,11.78 1.82,3.21 3.64,6.31 5.52,9.52 1.97,3.47 4.11,7.01 6.26,10.48 2.14,3.43 4.28,6.9 6.52,10.33 2.2,3.48 4.39,6.9 6.69,10.33 2.25,3.37 4.55,6.8 6.91,10.17 2.35,3.42 4.7,6.75 7.17,10.11 2.35,3.33 4.87,6.63 7.33,9.95 2.45,3.33 4.87,6.54 7.43,9.8 0.06,0.05 0.17,0.22 0.21,0.32 2.37,2.99 4.77,5.99 7.18,9 2.79,3.41 5.56,6.84 8.4,10.27 2.46,2.88 4.93,5.78 7.43,8.61 1.57,1.87 3.17,3.75 4.77,5.57 1.66,1.86 3.38,3.75 5.03,5.61 4.49,5.04 9.04,9.95 13.7,14.82 1.82,1.82 3.53,3.64 5.35,5.46 2.08,2.25 4.28,4.45 6.48,6.65l0 0.04c1.65,1.61 3.37,3.32 5.08,4.93 3.58,3.58 7.22,7.16 11.03,10.65 1.34,1.27 2.78,2.62 4.17,3.96 1.5,1.44 3.05,2.83 4.55,4.17 0.05,0 0.11,0.11 0.15,0.21l0.06 0c0.05,0 0.05,0.06 0.11,0.06l0.15 0.15c0.28,0.28 0.49,0.49 0.76,0.76 0.37,0.32 0.74,0.69 1.17,1.02 0.91,0.91 1.93,1.82 2.9,2.67 1.39,1.23 2.77,2.41 4.17,3.68 4.76,4.19 9.46,8.36 14.39,12.47 3.69,3.11 7.39,6.16 11.14,9.21 3.74,3.05 7.49,6.1 11.28,9.1 4.45,3.48 8.94,6.96 13.49,10.33 4.55,3.48 9.1,6.84 13.69,10.23 7.82,5.61 15.86,11.18 23.88,16.58 2.62,1.77 5.23,3.53 7.86,5.24 2.94,1.98 5.94,3.9 8.99,5.78 2.14,1.44 4.28,2.78 6.42,4.07 7.45,4.76 15.05,9.36 22.75,13.86 1.7,1.02 3.37,2.04 5.13,3.05 3.96,2.29 7.98,4.6 12.04,6.84 -1.33,-0.04 -2.56,-0.04 -3.79,-0.1 -5.9,0 -11.68,-0.11 -17.5,-0.16 -77.33,-0.86 -150.33,-1.6 -195.91,-32.11 -31.41,-20.98 -50.89,-53.09 -65.77,-90.48 -1.61,-3.96 -3.11,-7.98 -4.55,-12 -1.5,-4.06 -2.99,-8.13 -4.34,-12.3 -1.44,-4.17 -2.77,-8.4 -4.06,-12.57l-2.04 -6.42c-1.27,-4.29 -2.56,-8.57 -3.89,-12.91 -0.6,-2.14 -1.23,-4.32 -1.93,-6.46 -1.18,-4.4 -2.52,-8.78 -3.75,-13.23 -0.63,-2.14 -1.29,-4.38 -1.88,-6.58l-2.56 -8.83c-0.91,-2.99 -1.72,-5.93 -2.57,-8.83 -0.86,-2.99 -1.71,-5.93 -2.62,-8.83 -0.86,-3.05 -1.71,-5.99 -2.68,-8.89 -0.85,-2.98 -1.81,-5.99 -2.72,-8.82 -0.91,-2.99 -1.88,-5.93 -2.84,-8.83 -3,-9.15 -6.11,-18.25 -9.58,-27.23 -0.43,-1.08 -0.81,-2.09 -1.19,-3.17 -0.47,-1.17 -0.95,-2.35 -1.44,-3.52 -0.15,-0.38 -0.32,-0.76 -0.48,-1.18 -1.06,-2.63 -2.19,-5.3 -3.37,-7.98 -0.53,-1.34 -1.12,-2.78 -1.76,-4.17 -0.65,-1.4 -1.29,-2.78 -1.88,-4.11 -1.28,-2.73 -2.63,-5.46 -3.96,-8.25 -1.27,-2.67 -2.62,-5.3 -4.07,-7.97 -0.69,-1.35 -1.44,-2.68 -2.18,-3.96 -0.59,-1.07 -1.14,-2.03 -1.71,-3.05l-0.81 -1.39c-0.7,-1.29 -1.39,-2.41 -2.14,-3.64 -0.21,-0.43 -0.44,-0.75 -0.65,-1.12 -0.04,-0.07 -0.04,-0.17 -0.15,-0.22 -0.44,-0.76 -0.86,-1.45 -1.34,-2.2 -1.56,-2.45 -3.1,-4.91 -4.76,-7.38l-0.06 0c-1.55,-2.52 -3.26,-4.87 -4.97,-7.28 -3.05,-4.22 -6.16,-8.39 -9.36,-12.52 -1.25,-1.61 -2.48,-3.15 -3.7,-4.66 -3.96,-4.93 -7.97,-9.73 -12.2,-14.56 -1.55,-1.8 -3.11,-3.58 -4.76,-5.34 -1.72,-1.98 -3.54,-4.02 -5.4,-6.05 -5.52,-5.99 -11.14,-11.94 -16.92,-17.76 -11.51,-11.83 -23.22,-23.33 -34.95,-34.78 -56.82,-55.51 -110.39,-107.88 -110.39,-166.38 0,-57.04 50.99,-108.3 106.33,-162.35 1.29,-1.35 2.67,-2.68 4.06,-4.02 13.66,-13.31 27.46,-26.8 40.67,-40.56 3.75,-3.96 7.45,-7.98 11.2,-11.94 2.35,-2.62 4.64,-5.18 6.94,-7.75 2.1,-2.3 4.13,-4.61 6.1,-6.9 1.99,-2.36 3.96,-4.72 5.84,-7.07 2.03,-2.35 3.9,-4.7 5.78,-7.11 1.87,-2.31 3.69,-4.72 5.46,-7.12 1.76,-2.41 3.54,-4.82 5.3,-7.23 1.71,-2.35 3.42,-4.81 5.03,-7.27 1.66,-2.41 3.2,-4.87 4.76,-7.38 0.64,-0.97 1.23,-1.93 1.76,-2.95 13.6,-22.48 23.86,-47.25 32.59,-72.88 1.88,-5.68 3.74,-11.39 5.56,-17.13 0.91,-2.88 1.78,-5.78 2.63,-8.61 1.77,-5.78 3.47,-11.56 5.14,-17.34 1.71,-5.72 3.31,-11.45 5.02,-17.23 0.49,-1.98 1.12,-4.01 1.67,-5.99 0.59,-1.99 1.17,-4.02 1.71,-6 2.4,-8.29 4.81,-16.48 7.27,-24.55 1.71,-5.63 3.43,-11.09 5.25,-16.54 1.92,-6.05 4.02,-12 6.16,-17.82 0.38,-1.08 0.74,-2.03 1.12,-3.05 0.74,-1.99 1.55,-3.96 2.24,-5.89 0.43,-1.01 0.81,-1.98 1.19,-3l0 -0.05c0.1,-0.22 0.21,-0.44 0.26,-0.59 1.07,-2.73 2.19,-5.41 3.32,-8.02 0.8,-1.88 1.54,-3.7 2.41,-5.46 1.65,-3.64 3.32,-7.18 5.08,-10.71 0.8,-1.76 1.76,-3.43 2.67,-5.13 0.86,-1.71 1.82,-3.43 2.73,-5.09 0.8,-1.34 1.67,-2.72 2.41,-4.12 0.85,-1.39 1.66,-2.73 2.52,-4.06 2.52,-4.07 5.08,-7.92 7.92,-11.67 0.91,-1.28 1.86,-2.51 2.73,-3.7 0.95,-1.23 1.86,-2.35 2.84,-3.47 0.04,-0.11 0.15,-0.21 0.21,-0.32 1.01,-1.18 1.92,-2.3 2.94,-3.38 1.02,-1.17 2.03,-2.29 3.11,-3.48 1.02,-1.06 2.08,-2.24 3.2,-3.32 1.61,-1.59 3.22,-3.2 4.98,-4.7 1.5,-1.44 3.04,-2.84 4.65,-4.23 0.38,-0.26 0.66,-0.53 1.02,-0.74 1.56,-1.34 3.26,-2.67 4.93,-3.92 1.86,-1.33 3.79,-2.77 5.67,-4 7.86,-5.25 16.48,-9.59 25.79,-13.17 1.33,-0.53 2.73,-1.08 4.12,-1.61 0.26,-0.04 0.54,-0.15 0.81,-0.26 1.38,-0.48 2.77,-0.91 4.17,-1.39 0.64,-0.27 1.29,-0.49 1.93,-0.7 1.5,-0.38 2.94,-0.86 4.55,-1.29 4.81,-1.38 9.74,-2.67 14.82,-3.74 1.6,-0.37 3.26,-0.75 4.87,-1.07 7.32,-1.39 14.77,-2.62 22.58,-3.59 8.45,-1.12 17.13,-1.93 26.11,-2.61 3.21,-0.27 6.43,-0.49 9.69,-0.65 0.32,0 0.53,-0.05 0.8,-0.05 1.13,-0.06 2.19,-0.1 3.31,-0.21 0.91,-0.06 1.82,-0.11 2.79,-0.11 1.28,-0.12 2.57,-0.16 3.96,-0.22 2.03,-0.05 4.13,-0.16 6.21,-0.22 1.44,-0.04 2.89,-0.1 4.38,-0.15 3.59,-0.1 7.17,-0.27 10.81,-0.32 3.65,-0.12 7.23,-0.22 10.87,-0.27 3.7,-0.06 7.32,-0.17 11.02,-0.17 3.69,-0.04 7.44,-0.1 11.14,-0.15 3.74,-0.06 7.43,-0.1 11.18,-0.1 15.62,-0.22 31.41,-0.38 47.25,-0.81 3.9,-0.1 7.75,-0.17 11.6,-0.32 2.84,-0.1 5.67,-0.22 8.57,-0.33 2.35,-0.11 4.76,-0.21 7.12,-0.36 2.68,-0.11 5.29,-0.28 7.81,-0.43 2.68,-0.12 5.25,-0.33 7.87,-0.48 1.27,-0.07 2.62,-0.17 3.9,-0.32 5.88,-0.38 11.72,-0.91 17.55,-1.46 3.05,-0.32 6.22,-0.64 9.27,-1.02 4.11,-0.47 8.23,-0.95 12.36,-1.54 3.37,-0.49 6.8,-0.96 10.1,-1.55 3.75,-0.59 7.56,-1.23 11.3,-1.93 2.84,-0.59 5.68,-1.12 8.56,-1.71 2.52,-0.53 4.97,-1.12 7.55,-1.71 1.17,-0.22 2.4,-0.49 3.63,-0.81 0.27,-0.1 0.65,-0.17 0.97,-0.27 1.5,-0.32 3.05,-0.75 4.59,-1.17 1.82,-0.42 3.64,-0.97 5.46,-1.44 33.98,-9.48 66.37,-25.38 97.83,-43.46 9.42,-5.4 18.78,-11.03 28.09,-16.7 3.05,-1.87 6.2,-3.79 9.25,-5.67 6.16,-3.86 12.26,-7.71 18.36,-11.5 5.09,-3.22 10.12,-6.31 15.15,-9.48 4.92,-3.16 10,-6.21 14.93,-9.3l11.94 -7.24c7.91,-4.65 15.77,-9.25 23.7,-13.63 17.71,-9.74 35.32,-18.36 52.97,-25 3.92,-1.55 7.92,-2.88 11.83,-4.11 1.93,-0.7 3.9,-1.29 5.89,-1.93 1.97,-0.54 3.9,-1.12 5.93,-1.61 1.99,-0.59 3.91,-1.01 5.89,-1.5 1.12,-0.32 2.3,-0.59 3.43,-0.8 1.12,-0.26 2.19,-0.53 3.36,-0.74 1.67,-0.28 3.39,-0.66 5.1,-0.91 1.97,-0.38 3.96,-0.7 5.93,-0.98 7.98,-1.12 15.94,-1.71 23.98,-1.71 8.03,0 15.99,0.59 23.97,1.71 1.99,0.28 4.02,0.6 5.94,0.98 3.75,0.69 7.48,1.39 11.23,2.29 3.75,0.8 7.45,1.88 11.19,2.95 2.4,0.69 4.81,1.44 7.16,2.25 3.96,1.23 7.88,2.56 11.79,4.11 3.2,1.18 6.36,2.47 9.57,3.75 1.61,0.69 3.16,1.33 4.76,2.09 2.67,1.17 5.3,2.35 8.03,3.53 0.42,0.16 0.91,0.43 1.33,0.64 2.69,1.23 5.42,2.56 8.19,3.91 2.95,1.49 5.84,2.95 8.79,4.43 3.41,1.82 6.84,3.64 10.27,5.53 1.44,0.8 2.83,1.48 4.17,2.35 3.32,1.76 6.54,3.58 9.74,5.4 9.9,5.78 19.79,11.77 29.86,17.93 7.92,4.93 16.01,10.01 24.03,15.09 6.1,3.79 12.2,7.64 18.36,11.5 3.04,1.88 6.2,3.8 9.31,5.67 9.25,5.67 18.57,11.3 28.03,16.7 31.46,18.08 63.85,33.98 97.82,43.46 1.82,0.47 3.64,1.02 5.51,1.44 1.5,0.42 3.05,0.85 4.61,1.17 0.26,0.1 0.58,0.17 0.91,0.27 1.28,0.32 2.46,0.59 3.63,0.81 2.51,0.59 5.03,1.18 7.55,1.71 2.88,0.59 5.72,1.12 8.56,1.71 0.97,0.16 1.82,0.32 2.73,0.53 2.89,0.49 5.73,0.96 8.61,1.4 3.49,0.59 6.96,1.12 10.5,1.61 3.96,0.53 7.92,1.06 11.92,1.48 3.11,0.38 6.16,0.7 9.27,1.02 5.82,0.55 11.71,1.08 17.55,1.46 1.34,0.15 2.62,0.25 3.9,0.32 2.62,0.15 5.2,0.36 7.81,0.48 2.62,0.15 5.25,0.32 7.87,0.43 2.41,0.15 4.87,0.25 7.33,0.36 2.79,0.11 5.63,0.27 8.36,0.33 3.62,0.15 7.16,0.22 10.75,0.26 16.11,0.49 32.21,0.65 48.1,0.87 28.79,0.25 56.95,0.57 83.32,2.39 3.16,0.23 6.31,0.49 9.42,0.76 0.37,0.05 0.75,0.05 1.13,0.15 2.88,0.23 5.88,0.44 8.76,0.76l0.28 0c3.11,0.36 6.2,0.74 9.25,1.12 3.11,0.43 6.22,0.81 9.21,1.29 2.56,0.37 5.08,0.79 7.55,1.23 1.34,0.26 2.61,0.43 3.9,0.7 1.4,0.26 2.67,0.58 4.02,0.85 1.12,0.21 2.29,0.48 3.37,0.74 2.88,0.59 5.61,1.25 8.34,1.99 2.47,0.59 4.93,1.29 7.34,1.97 1.38,0.49 2.84,0.87 4.22,1.35 1.33,0.43 2.68,0.85 3.91,1.34 0.96,0.31 1.87,0.59 2.84,0.95 1.71,0.65 3.47,1.29 5.08,1.93 1.34,0.54 2.62,1.12 3.85,1.67l3.75 1.71c1.23,0.58 2.46,1.12 3.69,1.76l3.59 1.87c0.47,0.27 1.02,0.59 1.44,0.91 0.49,0.27 1.02,0.54 1.5,0.75 2.08,1.23 4.11,2.52 6.15,3.86 1.88,1.23 3.74,2.62 5.62,4 0.49,0.38 1.07,0.76 1.55,1.18 1.18,0.85 2.35,1.76 3.43,2.74 0.8,0.63 1.65,1.28 2.41,1.97 0.85,0.7 1.65,1.45 2.5,2.26 0.87,0.74 1.61,1.44 2.42,2.14 1.54,1.5 3.05,2.98 4.49,4.44 1.29,1.44 2.68,2.84 3.97,4.28 0.96,1.06 1.93,2.18 2.88,3.31 0.64,0.75 1.23,1.45 1.88,2.26 0.96,1.06 1.81,2.24 2.67,3.36 1.19,1.61 2.35,3.11 3.48,4.66 0.06,0.04 0.1,0.11 0.1,0.15 1.13,1.61 2.2,3.17 3.32,4.76 1.08,1.61 2.2,3.33 3.22,4.98 2.08,3.38 4.17,6.86 6.1,10.33 6.26,11.19 11.6,23.18 16.47,35.69 0.81,1.93 1.61,3.85 2.31,5.89l1.54 4.23c0.76,1.99 1.51,4.02 2.2,5.99 0.7,2.09 1.4,4.13 2.14,6.2 4.83,14.57 9.32,29.6 13.76,44.96 1.34,4.39 2.52,8.77 3.85,13.22 0.6,2.14 1.17,4.34 1.82,6.47 0.75,2.52 1.38,4.93 2.14,7.44 2.31,7.91 4.66,15.89 7.12,23.87l1.71 5.68c0.74,2.45 1.55,4.86 2.35,7.26 2.57,7.87 5.19,15.58 7.98,23.29 1.17,3.15 2.29,6.2 3.54,9.25 0.91,2.36 1.92,4.76 2.88,7.17 1.07,2.52 2.14,5.08 3.26,7.6 0.38,1.02 0.8,1.93 1.18,2.9 2.08,4.6 4.23,9.15 6.52,13.64 0.17,0.38 0.32,0.63 0.49,0.97 0.11,0.1 0.17,0.21 0.21,0.26 0.91,1.88 1.82,3.7 2.84,5.46 0.7,1.29 1.33,2.51 2.03,3.8 0.53,1.02 1.08,1.93 1.67,2.89 1.59,2.77 3.2,5.46 4.87,8.19 24.66,39.54 61.42,75.55 97.06,110.33 0,0.06 0.05,0.17 0.11,0.17 3.58,3.41 7.07,6.84 10.6,10.33 5.3,5.19 10.48,10.32 15.57,15.46 3.42,3.37 6.79,6.79 10.11,10.22 8.24,8.56 16.22,17.02 23.61,25.53 2.18,2.56 4.38,5.08 6.46,7.65 0.86,1.07 1.71,2.13 2.62,3.15 1.46,1.82 2.84,3.64 4.3,5.52 1.38,1.76 2.77,3.58 4.11,5.4 1.39,1.82 2.68,3.64 3.95,5.46 1.13,1.61 2.31,3.2 3.33,4.92 0.95,1.39 1.92,2.79 2.77,4.23 1.08,1.55 1.99,3.11 2.95,4.7 0.27,0.44 0.48,0.87 0.75,1.29 0.49,0.81 0.96,1.61 1.4,2.46l1.8 3.15c1.35,2.42 2.58,4.93 3.71,7.39 0.42,0.76 0.74,1.5 1.12,2.25 0.7,1.39 1.23,2.83 1.86,4.29 0.76,1.71 1.46,3.53 2.1,5.23 0.48,1.19 0.91,2.47 1.33,3.64 0.32,1.02 0.59,1.99 0.91,3.01 0.87,2.45 1.56,4.97 2.03,7.49 0.22,0.7 0.43,1.44 0.55,2.18 0.85,3.64 1.38,7.28 1.76,11.03 0.21,1.34 0.27,2.69 0.38,4.13 0.05,0.32 0.05,0.63 0.05,0.91 0.1,1.76 0.16,3.47 0.16,5.12z"/>
  <path class="fil3" d="M6937.08 2033.57c-1.13,11.72 -10,21.14 -21.3,23.28 -1.61,0.27 -3.26,0.43 -4.98,0.43l-0.85 0c-11.34,-0.37 -17.93,-6.69 -27.03,-15.36 -23.11,-22.2 -93.74,-89.73 -226.66,-91.98 -14.67,-0.27 -26.29,-12.32 -26.06,-26.92 0.25,-14.5 12.09,-26.06 26.53,-26.06l0.44 0c29.8,0.53 56.99,3.91 81.59,9.14 0.06,0 0.06,0.06 0.06,0.06 47.52,10.23 85.29,27.67 114.36,45.37 0.04,0 0.1,0.06 0.15,0.17 33.08,20.22 54.7,40.88 66.3,51.91 1.4,1.44 3.11,3.05 4.34,4.23 8.24,4.6 13.65,13.64 13.32,23.8 0,0.65 -0.05,1.24 -0.21,1.93zm-52.02 460.41c-1.48,0.17 -2.88,0.28 -4.38,0.28 -18.08,0 -33.77,-13.66 -36.01,-32.37 -4.17,-35.16 -23.07,-66.2 -50.58,-82.95 -11.49,-7.06 -23.75,-11.19 -36.49,-12.31 -16.05,-1.38 -32.43,2.14 -47.3,10.18 -21.08,11.39 -37.99,30.97 -47.58,55.21 -7.54,18.9 -28.56,28.05 -47.19,20.45 -18.63,-7.56 -27.61,-29.07 -20.18,-47.89 15.95,-40.24 44.63,-73.16 80.7,-92.7 -10.01,-17.59 -15.9,-38.04 -15.9,-59.87 0,-65.92 52.76,-119.44 117.73,-119.44 65.07,0 117.78,53.52 117.78,119.44 0,33.6 -13.69,63.95 -35.69,85.72 30.83,29.28 51.42,70.43 56.78,115.33 2.41,20.17 -11.77,38.47 -31.69,40.92zm-130.13 -52.43c-17.72,0 -32.01,-10.17 -32.01,-22.8 0,-12.58 14.29,-22.85 32.01,-22.85 17.66,0 31.88,10.27 31.88,22.85 0,12.63 -14.22,22.8 -31.88,22.8zm-421.89 76.52c-12.09,0 -21.89,-9.84 -21.89,-21.93 0,-12.11 9.8,-21.95 21.89,-21.95 12.09,0 21.89,9.84 21.89,21.95 0,12.09 -9.8,21.93 -21.89,21.93zm-96.75 -1.88c-12.1,0 -21.94,-9.84 -21.94,-21.93 0,-12.09 9.84,-21.94 21.94,-21.94 12.09,0 21.88,9.85 21.88,21.94 0,12.09 -9.79,21.93 -21.88,21.93zm-276.66 -63.72c-18.57,7.6 -39.71,-1.55 -47.2,-20.45 -9.58,-24.24 -26.53,-43.82 -47.51,-55.21 -14.93,-8.04 -31.31,-11.56 -47.31,-10.18 -12.79,1.12 -25.09,5.25 -36.55,12.31 -27.51,16.75 -46.44,47.79 -50.67,82.95 -2.2,18.71 -17.83,32.37 -35.91,32.37 -1.44,0 -2.94,-0.11 -4.38,-0.28 -19.92,-2.45 -34.1,-20.75 -31.69,-40.92 5.35,-44.9 25.91,-86.05 56.78,-115.33 -22,-21.77 -35.74,-52.12 -35.74,-85.72 0,-65.92 52.76,-119.44 117.72,-119.44 65.06,0 117.73,53.52 117.73,119.44 0,21.83 -5.78,42.28 -15.79,59.87 36.01,19.54 64.69,52.46 80.64,92.7 7.49,18.82 -1.55,40.33 -20.12,47.89zm-139.4 -10.92c-17.61,0 -31.88,-10.17 -31.88,-22.8 0,-12.58 14.27,-22.85 31.88,-22.85 17.66,0 32.01,10.27 32.01,22.85 0,12.63 -14.35,22.8 -32.01,22.8zm-174.39 -405.57c-0.32,-1.4 -0.49,-2.84 -0.54,-4.34 -0.31,-10.16 5.13,-19.2 13.38,-23.8 1.17,-1.18 2.89,-2.79 4.33,-4.23 12.47,-11.88 36.55,-34.89 74,-56.57 29.6,-17.12 67.49,-33.34 114.53,-42.48 0,0 0.04,0 0.11,-0.06 22.48,-4.33 47.08,-7.12 73.84,-7.54 14.66,-0.32 26.71,11.39 26.97,26.06 0.21,14.6 -11.46,26.65 -26.11,26.92 -132.88,2.25 -203.46,69.78 -226.68,91.98 -9.1,8.67 -15.62,14.99 -26.97,15.36l-0.96 0c-1.5,0 -3,-0.16 -4.44,-0.37 -10.76,-1.88 -19.33,-10.18 -21.46,-20.93zm1355.99 90.43l-0.17 -0.31c-40.12,-92.31 -107.33,-175.1 -194.08,-242.36 -3.9,-2.57 -7.81,-5.14 -11.83,-7.66 -4.01,-2.51 -8.03,-4.97 -11.98,-7.43 -2.74,-1.67 -5.41,-3.26 -8.18,-4.93 -6.37,-3.85 -12.8,-7.54 -19.39,-11.18 -2.5,-1.39 -5.08,-2.77 -7.58,-4.17 -2.31,-1.33 -4.72,-2.68 -7.18,-3.91 -2.09,-1.12 -4.17,-2.19 -6.31,-3.31 -2.09,-1.14 -4.23,-2.26 -6.32,-3.28 -2.03,-1.06 -4.01,-2.03 -6.04,-3.09 -2.3,-1.12 -4.66,-2.35 -7.07,-3.43 -2.67,-1.33 -5.46,-2.67 -8.19,-4.02 -2.94,-1.44 -5.88,-2.77 -8.93,-4.17 -3.01,-1.39 -5.95,-2.73 -9,-4.06 -1.01,-0.54 -2.08,-0.96 -3.2,-1.45 -3.38,-1.54 -6.79,-3.04 -10.28,-4.49 -6.84,-3 -13.81,-5.9 -20.81,-8.61 -3.48,-1.46 -6.97,-2.79 -10.49,-4.13 -3.53,-1.39 -7.13,-2.73 -10.64,-4.06 -3.64,-1.4 -7.39,-2.69 -11.09,-4.02 -2.4,-0.85 -4.87,-1.72 -7.33,-2.57 -1.97,-0.69 -3.96,-1.39 -5.99,-2.09 -3.32,-1.06 -6.64,-2.24 -10.06,-3.26 -3.26,-1.18 -6.69,-2.25 -10.01,-3.26 -2.78,-0.87 -5.51,-1.72 -8.24,-2.57 -1.01,-0.33 -2.03,-0.59 -2.94,-0.86 -3.26,-1.02 -6.37,-1.87 -9.59,-2.84 -8.44,-2.45 -16.95,-4.8 -25.52,-7 -2.08,-0.54 -4.11,-1.02 -6.1,-1.51 -1.06,-0.31 -2.08,-0.59 -3.16,-0.8 -0.53,-0.15 -1.06,-0.32 -1.65,-0.42 -3,-0.75 -6.05,-1.45 -9.04,-2.2 -11.14,-2.57 -22.38,-5.02 -33.66,-7.27 -4.29,-0.86 -8.62,-1.77 -12.95,-2.47 -0.22,-0.11 -0.54,-0.15 -0.87,-0.15 -2.99,-0.54 -6.04,-1.13 -9.09,-1.61 -8.35,-1.55 -16.8,-2.9 -25.31,-4.13 -2.03,-0.26 -4.13,-0.57 -6.16,-0.85 -0.05,-0.06 -0.15,-0.06 -0.21,-0.06 -4.81,-0.68 -9.57,-1.33 -14.34,-1.92 -5.88,-0.75 -11.72,-1.49 -17.61,-2.04 -11.71,-1.33 -23.54,-2.35 -35.48,-3.26 -5.93,-0.42 -11.92,-0.85 -17.91,-1.12 -0.23,0 -0.34,0 -0.49,-0.05 -5.41,-0.27 -10.81,-0.54 -16.17,-0.75 -0.85,-0.05 -1.65,-0.05 -2.46,-0.11 -5.71,-0.21 -11.34,-0.38 -16.95,-0.49 -6.1,-0.1 -12.15,-0.21 -18.25,-0.21l-2.35 0c-6.01,0 -11.83,0.06 -17.72,0.21 -20.34,53.79 -49.98,167.03 -7.17,221.82 14.45,18.46 32.21,27.88 49.17,26.48 1.08,-0.04 2.2,-0.21 3.22,-0.42 1.12,-0.17 2.14,-0.38 3.26,-0.7 1.08,-0.27 2.14,-0.49 3.26,-0.91 0.7,-0.26 1.46,-0.53 2.25,-0.85 0.75,-0.32 1.5,-0.65 2.26,-1.02 0.68,-0.32 1.48,-0.76 2.24,-1.23 1.27,-0.75 2.56,-1.6 3.85,-2.57 0.32,-0.26 0.6,-0.49 0.85,-0.7 0.91,-0.7 1.88,-1.49 2.63,-2.35 0.59,-0.53 1.07,-1.07 1.54,-1.61 0.66,-0.7 1.29,-1.49 1.89,-2.29 0.31,-0.28 0.53,-0.7 0.8,-1.08 0.32,-0.38 0.53,-0.8 0.8,-1.23 0.22,-0.21 0.47,-0.59 0.58,-0.97 0.44,-0.74 0.86,-1.49 1.29,-2.29 0.21,-0.48 0.42,-0.91 0.64,-1.39 0.27,-0.54 0.54,-1.19 0.75,-1.87 0.05,-0.23 0.16,-0.44 0.22,-0.7 0.27,-0.7 0.48,-1.39 0.69,-2.03 0.11,-0.49 0.26,-0.91 0.38,-1.4 0.16,-0.63 0.32,-1.29 0.43,-1.98 0.1,-0.37 0.15,-0.7 0.15,-1.02 0.06,-0.11 0.06,-0.15 0.06,-0.26 0.15,-0.76 0.27,-1.56 0.27,-2.3 0.05,-0.32 0.11,-0.59 0.11,-0.91 0.05,-1.02 0.11,-2.1 0.11,-3.16 0.31,-74.7 -63.04,-141.75 -63.68,-142.45 -14.14,-14.61 -13.71,-37.89 0.91,-51.97 0.85,-0.85 1.8,-1.7 2.71,-2.39 1.29,-1.02 2.58,-1.88 3.92,-2.73 0.63,-0.43 1.39,-0.81 2.14,-1.19 1.01,-0.53 2.13,-1.01 3.15,-1.44 0.11,-0.06 0.17,-0.1 0.27,-0.1 0.91,-0.38 1.76,-0.64 2.73,-0.91l0.05 0c0.32,-0.17 0.7,-0.22 1.02,-0.32 1.98,-0.55 3.91,-0.91 5.88,-1.08 0.17,-0.04 0.38,-0.11 0.55,-0.04 2.18,-0.22 4.38,-0.22 6.52,0 0.91,0.1 1.88,0.15 2.79,0.31 0.9,0.22 1.87,0.38 2.78,0.64 0.59,0.11 1.18,0.32 1.71,0.49 0.7,0.21 1.34,0.38 1.97,0.63 1.08,0.38 2.1,0.81 3.05,1.29l0.12 0c0.96,0.49 1.87,0.91 2.78,1.5 0.42,0.26 0.85,0.54 1.29,0.85 0.47,0.22 0.91,0.49 1.33,0.87 0.43,0.26 0.91,0.64 1.34,0.95 0.48,0.38 0.97,0.75 1.33,1.13 0.91,0.75 1.82,1.54 2.58,2.35 3.52,3.64 84.76,88.89 84.39,193.88 -0.22,48.1 -29.43,89.09 -74.6,104.61 -12.2,4.23 -24.73,6.22 -37.09,6.22 -38.2,0 -75.82,-19.43 -103.59,-55.02 -36.34,-46.4 -46.34,-113.72 -29.87,-200.08 1.44,-7.49 3.01,-14.72 4.66,-21.78 -62.34,55.55 -69.29,98.63 -73.74,126.18 -0.21,1.66 -0.48,3.38 -0.75,4.93 -2.99,18.03 -18.62,30.76 -36.27,30.76 -1.99,0 -4.02,-0.15 -6.05,-0.53 -20.07,-3.26 -33.62,-22.26 -30.34,-42.32 0.26,-1.4 0.53,-2.9 0.8,-4.51 3.26,-20.39 8.18,-51.21 29.75,-88.77 10.43,-18.2 23.54,-35.9 39.48,-53.19 0.49,-0.49 0.81,-0.81 1.19,-1.29 -351.84,65.13 -614.43,312.78 -614.43,607.52 0,172.96 90.44,329.69 236.25,442.87 113.13,74.7 253.06,125.32 406.75,141.6 0.28,0.04 0.43,0.04 0.64,0.04 22.31,2.42 44.96,4.02 67.8,4.87 -1.28,-1.27 -2.51,-2.62 -3.74,-3.9 -6.27,-6.9 -11.73,-14.39 -16.32,-22.37 -11.99,-20.45 -18.36,-44.14 -18.36,-68.76 0,-4.12 0.17,-8.19 0.53,-12.04 0.44,-4.81 1.08,-9.74 1.99,-14.4l0.32 -1.5 0.38 -1.49c0.36,-1.5 0.8,-2.94 1.27,-4.4 -36.16,-11.6 -69.93,-28.51 -99.58,-50.23 -68.12,-49.77 -111.78,-121.48 -126.39,-207.36 -1.82,-10.76 0.75,-21.63 7.22,-30.51 6.74,-9.26 17.17,-15.51 28.69,-17.18 23.22,-3.52 45.22,11.89 49.01,34.25 24.19,142.72 148.06,206.61 260.13,206.61 111.94,0 235.83,-63.89 260,-206.61 3.81,-22.36 25.75,-37.73 49.03,-34.25 11.56,1.67 21.98,7.92 28.67,17.18 6.48,8.88 9.05,19.75 7.23,30.51 -14.56,85.88 -58.23,157.59 -126.34,207.36 -29.91,21.82 -64.01,38.89 -100.44,50.55 0.38,1.29 0.8,2.69 1.18,4.08l0.42 1.49 0.32 1.5c0.85,4.66 1.55,9.59 1.99,14.4 0.36,3.85 0.53,7.92 0.53,12.04 0,24.67 -6.43,48.37 -18.46,68.93 -3.53,6.04 -7.55,11.77 -12,17.23 24.89,-3.53 49.41,-7.93 73.54,-13.17 4.81,-1.01 9.57,-2.09 14.4,-3.26 9.52,-2.2 18.93,-4.55 28.35,-7.07 75.19,-20 146.25,-48.58 211.58,-84.44 26.44,-14.88 51.7,-31.04 75.62,-48.37 0.32,-0.17 0.64,-0.38 0.96,-0.64 110.5,-80.11 192.11,-184.36 230.8,-301.92 0.05,-0.11 0.05,-0.17 0.11,-0.32 16.37,-49.72 25.04,-101.78 25.04,-155.4 0,-69.99 -14.77,-137.37 -42.06,-200.25z"/>
  <path class="fil4" d="M5852.21 2418.76c0,12.58 -14.34,22.8 -31.99,22.8 -17.62,0 -31.84,-10.22 -31.84,-22.8 0,-12.57 14.22,-22.84 31.84,-22.84 17.65,0 31.99,10.27 31.99,22.84z"/>
  <path class="fil4" d="M5959.65 2452.47c-18.62,7.6 -39.7,-1.55 -47.25,-20.44 -9.58,-24.24 -26.49,-43.83 -47.51,-55.22 -14.94,-8.03 -31.27,-11.56 -47.25,-10.17 -12.85,1.12 -25.11,5.24 -36.56,12.3 -27.56,16.7 -46.45,47.79 -50.68,82.95 -2.18,18.67 -17.81,32.37 -35.9,32.37 -1.44,0 -2.99,-0.11 -4.39,-0.32 -19.9,-2.46 -34.14,-20.71 -31.67,-40.88 5.34,-44.9 25.83,-86.05 56.76,-115.38 -21.98,-21.72 -35.74,-52.05 -35.74,-85.67 0,-65.98 52.76,-119.48 117.73,-119.48 65.07,0 117.72,53.5 117.72,119.48 0,21.83 -5.78,42.28 -15.83,59.89 36.07,19.52 64.69,52.44 80.7,92.62 7.49,18.9 -1.55,40.35 -20.13,47.95z"/>
  <path class="fil4" d="M6258.2 2494.27c0,12.09 -9.85,21.89 -21.89,21.89 -12.14,0 -21.93,-9.8 -21.93,-21.89 0,-12.15 9.79,-21.93 21.93,-21.93 12.04,0 21.89,9.78 21.89,21.93z"/>
  <path class="fil4" d="M6354.93 2496.11c0,12.15 -9.8,21.93 -21.89,21.93 -12.09,0 -21.89,-9.78 -21.89,-21.93 0,-12.11 9.8,-21.89 21.89,-21.89 12.09,0 21.89,9.78 21.89,21.89z"/>
  <path class="fil4" d="M6523.41 1762.99c-11.14,-2.63 -22.36,-5.1 -33.66,-7.35 11.3,2.2 22.52,4.66 33.66,7.35z"/>
  <path class="fil4" d="M6636.28 2563.67c-14.5,85.84 -58.22,157.54 -126.34,207.36 -29.91,21.84 -64,38.9 -100.43,50.52 0.42,1.34 0.8,2.73 1.16,4.11l0.43 1.51 0.33 1.5c0.85,4.65 1.55,9.57 1.97,14.39 0.38,3.86 0.54,7.92 0.54,11.99 0,24.66 -6.42,48.43 -18.46,68.92 -3.48,6.1 -7.54,11.82 -11.99,17.28 -9.68,1.33 -19.47,2.58 -29.27,3.64 -4.92,0.59 -9.95,1.08 -14.98,1.5 -10.01,0.96 -20.12,1.82 -30.24,2.41 -15.19,1.02 -30.49,1.66 -45.9,1.93 -2.63,0.05 -5.25,0.11 -7.98,0.11 -3.22,0 -6.31,0.04 -9.57,0.04l-0.91 0c-3.43,0 -6.86,-0.04 -10.29,-0.04 -9.42,-0.11 -18.78,-0.32 -28.14,-0.7 -1.28,-1.34 -2.51,-2.63 -3.7,-3.96 -6.31,-6.86 -11.77,-14.35 -16.36,-22.37 -12,-20.39 -18.36,-44.15 -18.36,-68.76 0,-4.07 0.15,-8.13 0.53,-11.99 0.43,-4.82 1.06,-9.74 1.98,-14.39l0.33 -1.5 0.36 -1.51c0.38,-1.48 0.81,-2.94 1.29,-4.44 -36.18,-11.56 -69.94,-28.52 -99.58,-50.19 -68.12,-49.82 -111.79,-121.52 -126.4,-207.36 -1.82,-10.76 0.76,-21.62 7.22,-30.51 6.75,-9.25 17.18,-15.51 28.68,-17.21 23.23,-3.49 45.22,11.92 49.03,34.29 24.24,142.71 148.06,206.56 260.11,206.56 111.95,0 235.83,-63.85 260.02,-206.56 3.8,-22.37 25.79,-37.72 49.01,-34.29 11.56,1.7 22,7.96 28.69,17.21 6.48,8.89 9.04,19.75 7.22,30.51z"/>
  <path class="fil4" d="M6786.84 2418.76c0,12.58 -14.28,22.8 -31.94,22.8 -17.72,0 -31.95,-10.22 -31.95,-22.8 0,-12.57 14.23,-22.84 31.95,-22.84 17.66,0 31.94,10.27 31.94,22.84z"/>
  <path class="fil4" d="M6885.09 2493.97c-1.5,0.21 -2.94,0.32 -4.4,0.32 -18.08,0 -33.76,-13.7 -36.01,-32.43 -4.17,-35.16 -23.11,-66.2 -50.55,-82.9 -11.52,-7.05 -23.82,-11.18 -36.56,-12.35 -16.05,-1.35 -32.37,2.14 -47.3,10.21 -21.04,11.35 -38,30.99 -47.52,55.23 -7.56,18.84 -28.58,27.99 -47.21,20.45 -18.67,-7.6 -27.66,-29.07 -20.17,-47.95 15.96,-40.24 44.64,-73.1 80.7,-92.64 -10.06,-17.59 -15.88,-38.04 -15.88,-59.87 0,-65.98 52.69,-119.5 117.72,-119.5 65.06,0 117.72,53.52 117.72,119.5 0,33.54 -13.69,63.94 -35.69,85.68 30.83,29.32 51.42,70.41 56.82,115.31 2.42,20.17 -11.77,38.47 -31.67,40.94z"/>
  <path class="fil0" d="M5959.65 2452.47c-18.62,7.6 -39.7,-1.55 -47.25,-20.44 -9.58,-24.24 -26.49,-43.83 -47.51,-55.22 -14.94,-8.03 -31.27,-11.56 -47.25,-10.17 -12.85,1.12 -25.11,5.24 -36.56,12.3 -27.56,16.7 -46.45,47.79 -50.68,82.95 -2.18,18.67 -17.81,32.37 -35.9,32.37 -1.44,0 -2.99,-0.11 -4.39,-0.32 -19.9,-2.46 -34.14,-20.71 -31.67,-40.88 5.34,-44.9 25.83,-86.05 56.76,-115.38 -21.98,-21.72 -35.74,-52.05 -35.74,-85.67 0,-65.98 52.76,-119.48 117.73,-119.48 65.07,0 117.72,53.5 117.72,119.48 0,21.83 -5.78,42.28 -15.83,59.89 36.07,19.52 64.69,52.44 80.7,92.62 7.49,18.9 -1.55,40.35 -20.13,47.95z"/>
  <path class="fil3" d="M5767.03 2208.58c0,9.95 -8.02,18.04 -18.03,18.04 -9.91,0 -17.98,-8.09 -17.98,-18.04 0,-9.95 8.07,-17.97 17.98,-17.97 10.01,0 18.03,8.02 18.03,17.97z"/>
  <path class="fil0" d="M6736.94 2226.62c-10.01,0 -17.99,-8.04 -17.99,-18.04 0,-9.9 7.98,-17.99 17.99,-17.99 9.95,0 17.97,8.09 17.97,17.99 0,10 -8.02,18.04 -17.97,18.04zm179.79 226.41c-5.35,-44.86 -25.95,-86.01 -56.77,-115.33 21.99,-21.72 35.69,-52.06 35.69,-85.67 0,-65.99 -52.71,-119.49 -117.72,-119.49 -65.02,0 -117.79,53.5 -117.79,119.49 0,21.84 5.89,42.27 15.9,59.88 -36.07,19.53 -64.74,52.38 -80.7,92.62 -7.43,18.9 1.56,40.35 20.17,47.95 18.63,7.56 39.72,-1.61 47.21,-20.43 9.57,-24.24 26.48,-43.84 47.57,-55.23 14.88,-8.08 31.25,-11.56 47.29,-10.22 12.75,1.18 25.05,5.29 36.5,12.36 27.52,16.7 46.46,47.74 50.63,82.9 2.25,18.71 17.93,32.41 36.01,32.41 1.44,0 2.84,-0.1 4.39,-0.32 19.91,-2.45 34.04,-20.75 31.62,-40.92z"/>
  <path class="fil3" d="M6736.94 2190.61c-9.95,0 -17.99,8.02 -17.99,17.97 0,9.91 8.04,18.04 17.99,18.04 9.95,0 17.97,-8.13 17.97,-18.04 0,-9.95 -8.02,-17.97 -17.97,-17.97z"/>
  <path class="fil5" d="M7091.55 2360.76c0,208.43 -131.25,393.26 -332.57,506.69 -130.73,71.72 -284.04,114.25 -448.27,117.36 -1.44,0.05 -2.94,0.05 -4.49,0.11 -0.06,0.05 -0.06,0.05 -0.1,0 -1.08,0 -2.2,0.05 -3.33,0.05 -3.26,0 -6.37,0.06 -9.63,0.06l-0.91 0c-3.43,0 -6.85,-0.06 -10.22,-0.06l-7.07 -0.16 -0.05 0 -2.13 0 -0.66 0c-0.74,-0.06 -1.59,-0.06 -2.35,-0.1 -1.65,0 -3.15,-0.06 -4.7,-0.11 -1.12,0 -2.31,-0.06 -3.43,-0.06 -3.26,-0.1 -6.52,-0.21 -9.8,-0.36 -3.3,-0.17 -6.52,-0.28 -9.84,-0.44 -2.73,-0.11 -5.4,-0.26 -8.07,-0.43 -0.49,-0.04 -0.91,-0.04 -1.4,-0.1l-0.1 0c-13.34,-0.75 -26.55,-1.82 -39.72,-3.11 -2.41,-0.26 -4.86,-0.47 -7.28,-0.75 -1.33,-0.1 -2.71,-0.27 -4.11,-0.42 -1.71,-0.17 -3.47,-0.38 -5.14,-0.64 -1.5,-0.12 -2.94,-0.27 -4.34,-0.44 -2.18,-0.32 -4.28,-0.59 -6.41,-0.8 -1.45,-0.21 -2.95,-0.37 -4.39,-0.58 -3.64,-0.48 -7.17,-0.97 -10.81,-1.45 -2.31,-0.37 -4.6,-0.7 -6.95,-1.02 -2.73,-0.43 -5.52,-0.85 -8.36,-1.28 -1.82,-0.33 -3.64,-0.59 -5.46,-0.91 -0.15,0 -0.21,-0.06 -0.32,-0.06l-8.51 -1.39c-1.17,-0.21 -2.29,-0.43 -3.47,-0.64 -1.18,-0.21 -2.35,-0.42 -3.47,-0.64l-8.68 -1.56c-2.63,-0.53 -5.36,-1.06 -7.96,-1.55 -2.58,-0.53 -5.1,-1.01 -7.6,-1.54 -0.87,-0.21 -1.67,-0.38 -2.58,-0.53 -2.78,-0.59 -5.62,-1.19 -8.51,-1.88 -2.4,-0.43 -4.71,-0.96 -7.12,-1.55 -0.04,-0.06 -0.1,-0.06 -0.15,-0.06 -1.99,-0.43 -4.02,-0.91 -5.94,-1.34 -0.22,-0.04 -0.38,-0.04 -0.6,-0.1 -1.97,-0.49 -4,-0.97 -5.93,-1.44 -1.98,-0.43 -3.91,-0.91 -5.84,-1.46 -1.01,-0.21 -1.97,-0.47 -2.94,-0.74 -2.31,-0.49 -4.55,-1.07 -6.73,-1.72 -0.66,-0.15 -1.29,-0.32 -1.93,-0.48 -0.59,-0.11 -1.14,-0.26 -1.72,-0.37 -0.54,-0.21 -1.07,-0.32 -1.6,-0.48 -1.13,-0.28 -2.2,-0.59 -3.37,-0.91 -0.65,-0.17 -1.24,-0.32 -1.88,-0.53 -1.55,-0.32 -3.05,-0.81 -4.6,-1.23l-0.06 0 -5.61 -1.56c-2.09,-0.58 -4.17,-1.17 -6.2,-1.83 -0.44,-0.15 -1.02,-0.25 -1.51,-0.42 -2.51,-0.74 -5.03,-1.5 -7.6,-2.18 -0.69,-0.28 -1.44,-0.44 -2.14,-0.7 -0.37,-0.17 -0.8,-0.21 -1.18,-0.38 -2.2,-0.7 -4.34,-1.29 -6.41,-1.99 -0.22,-0.04 -0.32,-0.1 -0.49,-0.15 -0.11,0 -0.21,-0.06 -0.38,-0.11 -0.21,-0.1 -0.42,-0.16 -0.7,-0.21 -1.86,-0.59 -3.73,-1.12 -5.65,-1.82 -0.23,-0.1 -0.55,-0.21 -0.87,-0.27 -0.64,-0.15 -1.33,-0.43 -2.08,-0.64 -2.2,-0.7 -4.29,-1.44 -6.47,-2.2 -0.81,-0.27 -1.78,-0.53 -2.69,-0.85 -2.08,-0.7 -4.11,-1.39 -6.14,-2.03 -0.66,-0.27 -1.29,-0.49 -1.88,-0.76 -2.67,-0.91 -5.4,-1.82 -8.03,-2.84l-6.58 -2.35c-0.43,-0.21 -0.85,-0.31 -1.29,-0.42 -0.74,-0.27 -1.44,-0.59 -2.14,-0.87 -2.41,-0.91 -4.81,-1.71 -7.16,-2.67 -0.38,-0.16 -0.86,-0.37 -1.29,-0.48 -1.71,-0.59 -3.43,-1.28 -5.08,-1.97 -0.21,-0.11 -0.49,-0.22 -0.65,-0.28 -0.96,-0.31 -1.87,-0.69 -2.78,-1.06 -2.41,-0.97 -4.76,-1.88 -7.07,-2.83 -2.39,-0.91 -4.76,-1.89 -7.16,-2.95 -0.8,-0.27 -1.6,-0.59 -2.41,-0.97 -2.46,-1.01 -4.82,-1.98 -7.17,-3.05 -2.73,-1.18 -5.51,-2.41 -8.24,-3.53 -2.79,-1.23 -5.46,-2.46 -8.19,-3.75 -2.56,-1.12 -5.19,-2.24 -7.71,-3.47 -0.38,-0.17 -0.69,-0.27 -1.07,-0.49 -2.46,-1.12 -4.98,-2.3 -7.44,-3.53 -1.97,-0.91 -3.96,-1.82 -5.93,-2.84 -0.06,-0.1 -0.22,-0.1 -0.27,-0.1 -0.21,-0.16 -0.43,-0.26 -0.7,-0.43 -0.7,-0.32 -1.29,-0.53 -1.92,-0.85 -1.61,-0.8 -3.22,-1.61 -4.81,-2.41 -0.12,-0.06 -0.23,-0.06 -0.23,-0.11 -1.23,-0.65 -2.5,-1.22 -3.69,-1.82 0,-0.06 -0.1,-0.06 -0.16,-0.1l-6.1 -3.16c-2.63,-1.35 -5.23,-2.73 -7.86,-4.12 -2.2,-1.13 -4.29,-2.25 -6.43,-3.37l-0.05 -0.06 -0.65 -0.32c-0.57,-0.32 -1.17,-0.64 -1.8,-1.02 -1.99,-1.01 -3.98,-2.14 -5.95,-3.21 -0.38,-0.21 -0.8,-0.47 -1.23,-0.7 -0.16,-0.15 -0.32,-0.21 -0.48,-0.36 -0.22,-0.06 -0.32,-0.17 -0.49,-0.22 -2.03,-1.07 -3.96,-2.24 -5.99,-3.38 -2.52,-1.44 -5.08,-2.88 -7.54,-4.38 -1.99,-1.13 -3.91,-2.25 -5.84,-3.43 -0.21,-0.11 -0.47,-0.32 -0.7,-0.43 -0.32,-0.15 -0.63,-0.31 -0.91,-0.48 -0.15,-0.05 -0.21,-0.11 -0.32,-0.21 -2.39,-1.44 -4.76,-2.89 -7.11,-4.33l-0.05 0c-0.16,-0.16 -0.37,-0.22 -0.48,-0.33 -0.17,-0.11 -0.32,-0.15 -0.43,-0.26 -2.09,-1.29 -4.23,-2.62 -6.26,-3.91l-0.32 -0.15c-0.21,-0.17 -0.48,-0.34 -0.76,-0.49 -1.71,-1.12 -3.47,-2.2 -5.18,-3.32 -0.91,-0.53 -1.76,-1.06 -2.52,-1.65 -0.22,-0.11 -0.37,-0.17 -0.47,-0.28 -1.88,-1.12 -3.64,-2.35 -5.42,-3.53 -2.35,-1.49 -4.76,-3.16 -7.17,-4.76 -2.29,-1.55 -4.71,-3.2 -7.01,-4.81 -2.35,-1.61 -4.7,-3.22 -7.01,-4.87 -2.03,-1.44 -4.11,-2.94 -6.2,-4.45 -1.29,-0.91 -2.52,-1.82 -3.75,-2.73 -1.82,-1.29 -3.53,-2.62 -5.35,-3.96 -1.72,-1.29 -3.48,-2.62 -5.24,-3.89 -2.2,-1.72 -4.5,-3.39 -6.69,-5.21 113.12,74.77 253.11,125.39 406.8,141.65 0.26,0.06 0.42,0.06 0.59,0.06 22.31,2.41 44.95,4 67.79,4.87 9.37,0.38 18.78,0.59 28.15,0.7 3.43,0 6.84,0.04 10.27,0.04l0.91 0c3.26,0 6.42,-0.04 9.59,-0.04 2.73,0 5.34,-0.06 8.02,-0.11 15.41,-0.27 30.66,-0.91 45.86,-1.93 10.12,-0.59 20.23,-1.45 30.23,-2.41 5.04,-0.42 10.07,-0.91 15.05,-1.5 9.74,-1.06 19.47,-2.24 29.21,-3.58 24.83,-3.53 49.39,-7.92 73.57,-13.23 4.76,-1.01 9.53,-2.07 14.35,-3.26 9.53,-2.18 18.99,-4.55 28.37,-7.05 75.23,-20.02 146.24,-48.6 211.63,-84.45 26.44,-14.88 51.63,-31.03 75.62,-48.37 0.25,-0.17 0.59,-0.38 0.91,-0.65 110.55,-80.11 192.09,-184.35 230.85,-301.97 0.05,-0.04 0.05,-0.1 0.11,-0.27 16.32,-49.71 24.98,-101.77 24.98,-155.45 0,-69.94 -14.78,-137.31 -42.06,-200.18l-0.16 -0.32c-40.13,-92.32 -107.35,-175.09 -194.1,-242.37 1.13,0.76 2.26,1.4 3.39,2.2 0.26,0.22 0.63,0.38 0.91,0.64 0,0 0.04,0 0.04,0.06 1.44,0.91 2.9,1.93 4.34,2.88 0.53,0.38 1.12,0.76 1.72,1.19 1.39,0.91 2.77,1.92 4.17,2.88 0.85,0.59 1.71,1.18 2.56,1.77 2.31,1.61 4.61,3.16 6.86,4.81 2.07,1.5 4.23,3.05 6.31,4.61 0.06,0 0.06,0 0.1,0 1.5,1.13 3.01,2.25 4.51,3.43 1.06,0.75 2.14,1.55 3.15,2.29 1.38,0.97 2.63,1.99 4.01,3.01 0.91,0.74 1.88,1.44 2.79,2.18 0.42,0.27 0.91,0.65 1.33,0.97 0.38,0.32 0.75,0.64 1.17,0.96 0.91,0.59 1.67,1.29 2.58,1.98l1.4 1.08c0.25,0.21 0.57,0.47 0.85,0.68 1.71,1.35 3.47,2.73 5.24,4.13 1.98,1.61 3.96,3.26 5.93,4.87l0.11 0.1c0.65,0.49 1.18,1.02 1.82,1.45 0.21,0.21 0.44,0.37 0.65,0.54 1.55,1.34 3.05,2.57 4.66,3.9l6.42 5.52c1.76,1.49 3.58,3.05 5.29,4.64 1.4,1.14 2.69,2.37 4.07,3.54 0.16,0.1 0.27,0.27 0.42,0.42 1.56,1.29 3,2.69 4.51,4.02 1.54,1.44 3.09,2.84 4.65,4.28 1.61,1.5 3.16,2.94 4.7,4.34 0.7,0.74 1.51,1.5 2.25,2.14 0.06,0.06 0.06,0.16 0.17,0.16 1.18,1.17 2.24,2.25 3.42,3.37 0.85,0.8 1.76,1.65 2.51,2.52 1.45,1.33 2.83,2.67 4.23,4.06l1.67 1.61 0.53 0.53c0.64,0.75 1.33,1.4 2.08,2.14 0.69,0.7 1.45,1.4 2.15,2.14 0.26,0.27 0.47,0.55 0.74,0.86 1.82,1.76 3.54,3.58 5.3,5.34 2.68,2.84 5.29,5.68 7.87,8.51 0.53,0.49 0.96,1.02 1.44,1.57 0.11,0.15 0.32,0.31 0.49,0.42 0.95,1.12 1.92,2.14 2.83,3.26 1.44,1.5 2.78,3.05 4.11,4.6 1.78,1.88 3.39,3.75 5.04,5.63l0.49 0.63c1.76,2.04 3.53,4.07 5.29,6.1 1.33,1.67 2.62,3.28 3.96,4.87l0.7 0.76c0.21,0.38 0.53,0.74 0.85,1.06 0,0.06 0.06,0.06 0.06,0.06 0.74,1.02 1.54,1.97 2.35,2.94 0.74,0.96 1.5,1.87 2.3,2.89 0.05,0.1 0.11,0.16 0.16,0.27 1.45,1.76 2.94,3.64 4.33,5.46 0.64,0.74 1.19,1.44 1.66,2.14 0.12,0.06 0.12,0.17 0.22,0.27 0.96,1.17 1.82,2.35 2.72,3.58 0.12,0.06 0.23,0.17 0.27,0.32l2.04 2.68c1.01,1.39 2.09,2.72 3.1,4.12 3.33,4.61 6.63,9.14 9.85,13.75 3.11,4.45 5.99,8.88 8.93,13.38 0.7,1.02 1.4,1.97 1.99,2.99 0.11,0.17 0.21,0.38 0.32,0.59 1.17,1.67 2.24,3.37 3.31,5.14 1.29,1.98 2.51,4.07 3.85,6.16 0.86,1.44 1.71,2.89 2.62,4.33 0.44,0.69 0.87,1.45 1.29,2.24 0.59,0.91 1.13,1.88 1.66,2.79 0.59,0.96 1.18,1.93 1.71,2.88 0.11,0.22 0.27,0.44 0.32,0.66 1.08,1.86 2.2,3.79 3.32,5.72 0.32,0.65 0.76,1.28 1.08,1.92 1.06,1.88 2.08,3.81 3.09,5.74 0.59,0.95 1.08,1.97 1.61,2.94 0.53,1.01 1.08,2.03 1.61,2.99 0.38,0.69 0.59,1.23 0.91,1.88 1.12,1.97 2.09,3.96 3.15,5.99 0.06,0.04 0.06,0.15 0.11,0.21 0.91,1.97 1.88,3.85 2.84,5.78 0.1,0.32 0.31,0.59 0.42,0.85 1.46,3 2.9,5.99 4.29,9 0.91,1.92 1.81,3.91 2.61,5.84 0.97,2.07 1.82,4.11 2.79,6.14 0.85,1.99 1.66,3.85 2.52,5.84 0.58,1.5 1.17,2.94 1.76,4.34 0.74,1.76 1.4,3.47 2.09,5.18 0.47,1.17 0.96,2.36 1.38,3.54l0.17 0.42c0.21,0.37 0.32,0.81 0.49,1.17 0.47,1.29 0.95,2.58 1.48,3.85 0.6,1.67 1.29,3.49 1.88,5.15 0.38,0.97 0.75,2.03 1.08,3l0.05 0.05c0.63,1.92 1.33,3.85 1.98,5.67 0.79,2.24 1.6,4.49 2.29,6.75 0,0.1 0,0.15 0.07,0.21 0.74,2.25 1.5,4.55 2.13,6.8l1.61 4.87 1.38 4.8c0.55,1.82 1.02,3.6 1.5,5.31 1.61,5.56 3.05,11.18 4.34,16.75 0.64,2.29 1.12,4.55 1.72,6.84 0.04,0.21 0.1,0.49 0.15,0.76 0.27,1.38 0.59,2.84 0.91,4.28 0.23,0.91 0.44,1.71 0.59,2.67 0.42,1.98 0.8,3.91 1.18,5.88 0.22,0.97 0.38,1.93 0.59,2.9l0.64 3.43c0.11,0.42 0.17,0.74 0.27,1.17 0.05,0.37 0.16,0.69 0.22,1.07 0.04,0.75 0.21,1.55 0.32,2.29 0.37,1.99 0.69,3.86 1.06,5.84 0.48,3.05 0.91,6.16 1.39,9.21 0.32,2.35 0.7,4.7 0.91,7.05 0.43,2.63 0.76,5.25 0.97,7.82 0.32,2.36 0.53,4.65 0.81,6.96 0.26,3.05 0.53,5.88 0.79,8.83 0.27,2.94 0.48,5.88 0.65,8.89 0.1,2.35 0.26,4.7 0.32,7.11 0.16,2.03 0.21,4.13 0.32,6.16l0 0.04c0.06,1.13 0.1,2.14 0.1,3.22l0 1.23c0.06,1.98 0.11,4.02 0.17,6.05 0.04,2.46 0.04,4.87 0.04,7.33z"/>
  <path class="fil6" d="M6786.84 2418.76c0,12.58 -14.28,22.8 -31.94,22.8 -17.72,0 -31.95,-10.22 -31.95,-22.8 0,-12.57 14.23,-22.84 31.95,-22.84 17.66,0 31.94,10.27 31.94,22.84z"/>
  <path class="fil6" d="M5852.21 2418.76c0,12.58 -14.34,22.8 -31.99,22.8 -17.62,0 -31.84,-10.22 -31.84,-22.8 0,-12.57 14.22,-22.84 31.84,-22.84 17.65,0 31.99,10.27 31.99,22.84z"/>
  <path class="fil2" d="M6884.35 1623.13c-20.33,-0.85 -40.82,-1.06 -61.1,-1.23 -13.23,-0.1 -26.5,-0.32 -39.76,-0.59 -4.4,-0.11 -8.78,-0.21 -13.16,-0.36 -4.4,-0.17 -8.73,-0.38 -13.13,-0.55 -3.58,-0.15 -7.22,-0.32 -10.75,-0.53 -15.2,-0.85 -30.06,-2.19 -44.31,-4.17 -1.86,-0.28 -3.79,-0.49 -5.61,-0.81 -2.41,-0.31 -4.82,-0.74 -7.22,-1.18 -6.33,-1.06 -12.47,-2.4 -18.52,-3.79 -2.99,-0.74 -5.99,-1.44 -8.94,-2.31 -1.33,-0.32 -2.56,-0.74 -3.91,-1.17 -1.12,-0.27 -2.24,-0.65 -3.41,-0.97 -10.82,-3.53 -21.68,-7.91 -32.71,-13 -2.51,-1.22 -4.97,-2.41 -7.49,-3.68 -0.36,-0.17 -0.7,-0.27 -1.02,-0.49 -2.88,-1.44 -5.71,-2.83 -8.61,-4.38 -2.19,-1.14 -4.33,-2.26 -6.52,-3.49 -2.42,-1.23 -4.77,-2.62 -7.12,-3.96 -1.71,-0.95 -3.38,-1.86 -5.08,-2.88 -3.28,-1.82 -6.48,-3.7 -9.75,-5.63 -14.55,-8.61 -29.43,-17.93 -44.52,-27.39 -72.51,-45.54 -147.58,-92.58 -238.55,-92.58 -91.03,0 -166,47.04 -238.56,92.58 -19.05,11.93 -37.68,23.6 -55.92,34.04 -2.14,1.16 -4.24,2.35 -6.31,3.47 -8.2,4.6 -16.33,8.83 -24.41,12.74 -1.97,0.91 -3.96,1.87 -5.99,2.78 -1.97,0.97 -4.01,1.82 -5.99,2.67 -5.25,2.3 -10.59,4.4 -15.84,6.32 -5.19,1.87 -10.5,3.58 -15.68,5.02 -2.95,0.87 -5.89,1.57 -8.88,2.31 -6.05,1.39 -12.26,2.73 -18.58,3.79 -2.35,0.44 -4.76,0.87 -7.22,1.18 -1.76,0.32 -3.54,0.53 -5.4,0.81 -14.35,1.98 -29.22,3.32 -44.52,4.17 -3.38,0.21 -6.8,0.38 -10.29,0.48 -0.15,0.05 -0.36,0.05 -0.57,0.05 -4.34,0.17 -8.62,0.38 -13.02,0.55 -4.38,0.15 -8.76,0.25 -13.15,0.36 -13.23,0.27 -26.54,0.49 -39.71,0.59 -16.22,0.11 -32.6,0.32 -48.8,0.81 -5.41,0.1 -10.81,0.31 -16.21,0.53 13.21,-10.42 26.75,-20.6 40.66,-30.28 3.54,-2.58 7.22,-5.08 10.8,-7.49 5.25,-3.6 10.44,-7.12 15.8,-10.55 3.32,-2.2 6.68,-4.33 10.01,-6.41l0.04 0c8.09,-5.14 16.28,-10.18 24.51,-15.05 8.35,-4.87 16.71,-9.57 25.15,-14.18 5.62,-3.1 11.35,-6.15 17.02,-9.09 3.64,-1.82 7.18,-3.75 10.86,-5.52 3.58,-1.82 7.23,-3.58 10.87,-5.35 3.64,-1.81 7.32,-3.52 11.02,-5.3 3.64,-1.71 7.28,-3.47 11.03,-5.13 2.94,-1.35 5.93,-2.68 8.94,-3.95 5.93,-2.63 11.92,-5.25 18.03,-7.77 6.04,-2.46 12.09,-4.98 18.25,-7.33 6.14,-2.41 12.24,-4.76 18.46,-7.07 6.14,-2.24 12.41,-4.49 18.67,-6.69 3.1,-1.07 6.27,-2.09 9.47,-3.21 13.92,-4.66 28.04,-8.98 42.38,-13.05 3.38,-0.91 6.79,-1.88 10.22,-2.79 2.1,-0.63 4.23,-1.17 6.37,-1.76 2.73,-0.69 5.51,-1.45 8.3,-2.14 2.03,-0.54 4.07,-1.01 6.1,-1.5 3.15,-0.86 6.37,-1.54 9.52,-2.35 4.92,-1.18 9.89,-2.3 14.89,-3.43 2.94,-0.63 5.93,-1.29 8.98,-1.92 13.48,-2.79 27.07,-5.4 40.77,-7.66 3.59,-0.64 7.17,-1.23 10.81,-1.76 3.58,-0.53 7.18,-1.13 10.82,-1.66 6.14,-0.86 12.36,-1.71 18.57,-2.51 3.42,-0.43 6.84,-0.81 10.33,-1.23 3.2,-0.38 6.46,-0.76 9.73,-1.08 5.62,-0.53 11.18,-1.12 16.8,-1.61 2.79,-0.26 5.56,-0.53 8.35,-0.7 4.81,-0.36 9.68,-0.74 14.55,-1.06 5.73,-0.38 11.51,-0.7 17.34,-0.97 2.09,-0.1 4.17,-0.15 6.26,-0.26 3.54,-0.16 7.07,-0.31 10.61,-0.38 10.64,-0.37 21.29,-0.53 31.94,-0.53 227.79,0 435.74,75.94 593.01,200.61z"/>
  <path class="fil7" d="M5915.55 1609.92c-5.99,1.44 -12.26,2.73 -18.57,3.79 6.31,-1.06 12.58,-2.4 18.57,-3.79z"/>
  <path class="fil7" d="M6689.32 1613.74c-6.31,-1.14 -12.46,-2.37 -18.56,-3.81 6.1,1.4 12.25,2.67 18.56,3.81z"/>
  <path class="fil7" d="M5412.78 2318.16c-0.12,1.4 -0.22,2.79 -0.33,4.17 0.06,-0.47 0.06,-0.85 0.11,-1.33 0.06,-0.96 0.16,-1.87 0.22,-2.84z"/>
  <path class="fil7" d="M5425.11 2033.78c-0.59,1.02 -1.12,1.93 -1.77,2.94 -1.55,2.52 -3.16,4.93 -4.76,7.34 -1.61,2.46 -3.37,4.92 -5.08,7.33 3.47,-4.87 6.75,-9.74 9.79,-14.67 0.7,-1.01 1.23,-1.92 1.82,-2.94z"/>
  <path class="fil7" d="M5424.64 2592.31c-0.44,-0.75 -0.91,-1.44 -1.35,-2.19 -1.54,-2.47 -3.09,-4.93 -4.7,-7.38 1.61,2.45 3.16,4.91 4.77,7.38 0.42,0.75 0.84,1.44 1.28,2.19z"/>
  <path class="fil7" d="M5428.88 2220.7c-1.82,7.12 -3.49,14.35 -5.15,21.51 1.08,-4.81 2.14,-9.57 3.33,-14.33 0.63,-2.41 1.16,-4.83 1.82,-7.18z"/>
  <path class="fil7" d="M5443.97 2630.2c-1.12,-2.78 -2.41,-5.57 -3.64,-8.3 0.59,1.34 1.23,2.73 1.88,4.13 0.64,1.39 1.23,2.83 1.76,4.17z"/>
  <path class="fil7" d="M5450.45 2646.04c-0.91,-2.25 -1.76,-4.45 -2.61,-6.69 0.47,1.18 0.95,2.35 1.44,3.53 0.38,1.06 0.74,2.08 1.17,3.16z"/>
  <path class="fil7" d="M5477.67 1894.56c-0.53,1.99 -1.12,4.02 -1.65,5.99 -1.65,5.78 -3.32,11.51 -5.03,17.29 1.66,-5.78 3.38,-11.51 4.97,-17.29 0.59,-1.97 1.18,-4 1.71,-5.99z"/>
  <path class="fil7" d="M5477.89 2732.88c-0.64,-2.14 -1.29,-4.39 -1.93,-6.57 -0.85,-3.01 -1.71,-5.89 -2.52,-8.85l2.58 8.85c0.64,2.18 1.23,4.43 1.87,6.57z"/>
  <path class="fil7" d="M5605.14 2797.53c-1.72,-1.61 -3.37,-3.33 -5.08,-4.93l0 -0.05c1.71,1.65 3.36,3.37 5.08,4.98z"/>
  <path class="fil7" d="M5624.89 2816.33c-1.49,-1.33 -3.05,-2.77 -4.55,-4.17 -1.38,-1.38 -2.84,-2.67 -4.17,-3.96 2.89,2.69 5.77,5.4 8.72,8.13z"/>
  <path class="fil7" d="M5704.74 1696.67c-3.43,0.1 -6.8,0.27 -10.17,0.48 1.28,-0.1 2.57,-0.16 3.96,-0.21 2.03,-0.06 4.13,-0.23 6.21,-0.27z"/>
  <path class="fil7" d="M5858.27 1692.48c-1.29,0.17 -2.62,0.27 -3.91,0.32 -2.61,0.17 -5.19,0.38 -7.86,0.49 3.96,-0.22 7.92,-0.49 11.77,-0.81z"/>
  <path class="fil7" d="M5939.53 1680.47c-0.32,0.1 -0.69,0.15 -0.97,0.26 -1.23,0.31 -2.39,0.65 -3.62,0.86 1.48,-0.38 3.05,-0.7 4.59,-1.12z"/>
  <path class="fil7" d="M6651.39 1681.56c-1.17,-0.21 -2.41,-0.53 -3.64,-0.85 -0.32,-0.12 -0.64,-0.17 -0.96,-0.27 1.5,0.42 3.1,0.74 4.6,1.12z"/>
  <path class="fil7" d="M6739.76 1693.27c-2.62,-0.11 -5.2,-0.32 -7.81,-0.48 -1.29,-0.05 -2.58,-0.16 -3.91,-0.32 3.91,0.32 7.81,0.59 11.72,0.8z"/>
  <path class="fil7" d="M7109.42 2625.71c-1.38,2.67 -2.83,5.46 -4.27,8.07 -1.4,2.62 -2.84,5.25 -4.28,7.81 1.39,-2.56 2.83,-5.19 4.23,-7.81 1.44,-2.61 2.94,-5.4 4.32,-8.07z"/>
  <path class="fil7" d="M7129.87 2139.23c-7.39,-17.34 -15.64,-34.57 -24.79,-51.53 -5.56,-10.37 -11.45,-20.66 -17.65,-30.76 -0.74,-1.29 -1.5,-2.58 -2.31,-3.75 0.87,1.17 1.57,2.46 2.37,3.75 1.55,2.5 3.09,5.08 4.53,7.6 1.57,2.56 3.05,5.13 4.51,7.71 2.99,5.12 5.78,10.21 8.62,15.45 9.14,16.96 17.38,34.19 24.72,51.53z"/>
  <path class="fil7" d="M7123.7 2596.28c-1.08,2.35 -2.1,4.66 -3.22,6.96 -0.27,0.7 -0.59,1.34 -0.95,2.04 1.38,-3.01 2.77,-5.99 4.17,-9z"/>
  <path class="fil7" d="M7124.53 2594.4c-0.11,0.21 -0.15,0.38 -0.21,0.53 -0.21,0.49 -0.43,0.91 -0.64,1.34 0.21,-0.43 0.43,-0.85 0.59,-1.34 0.11,-0.15 0.15,-0.32 0.26,-0.53z"/>
  <path class="fil7" d="M7121.56 2688.2c-1.19,3.86 -2.37,7.77 -3.49,11.62 0.8,-3 1.71,-5.94 2.58,-8.89 0.26,-0.91 0.57,-1.82 0.91,-2.73z"/>
  <path class="fil7" d="M7125.52 1951.32c-0.81,-2.41 -1.6,-4.87 -2.35,-7.32l-1.72 -5.63c1.29,4.27 2.73,8.67 4.07,12.95z"/>
  <path class="fil7" d="M7149.77 2614.04c-2.62,5.31 -5.14,10.65 -7.49,16.17 0.59,-1.39 1.23,-2.79 1.86,-4.17 1.19,-2.79 2.48,-5.56 3.75,-8.25 0.65,-1.27 1.18,-2.52 1.88,-3.75z"/>
  <path class="fil7" d="M7151.39 2016.12c-0.16,-0.33 -0.31,-0.65 -0.48,-1.01 -0.49,-0.81 -0.8,-1.78 -1.23,-2.58 0.59,1.18 1.17,2.41 1.71,3.59z"/>
  <path class="fil7" d="M7146.53 2005.93c1.07,2.2 2.03,4.38 3.17,6.58 -1.14,-2.2 -2.16,-4.38 -3.17,-6.58z"/>
  <path class="fil7" d="M7146.48 2005.93c-0.7,-1.5 -1.33,-3 -2.09,-4.45 -0.43,-0.95 -0.85,-1.86 -1.23,-2.88 1.08,2.46 2.2,4.87 3.32,7.33z"/>
  <path class="fil7" d="M7158.13 2028.5c-0.64,-0.97 -1.12,-1.87 -1.65,-2.9 -0.7,-1.27 -1.4,-2.5 -2.04,-3.79 1.13,2.25 2.42,4.49 3.69,6.69z"/>
  <path class="fil0" d="M6258.2 2494.27c0,12.09 -9.85,21.89 -21.89,21.89 -12.14,0 -21.93,-9.8 -21.93,-21.89 0,-12.15 9.79,-21.93 21.93,-21.93 12.04,0 21.89,9.78 21.89,21.93z"/>
  <path class="fil0" d="M6354.93 2496.11c0,12.15 -9.8,21.93 -21.89,21.93 -12.09,0 -21.89,-9.78 -21.89,-21.93 0,-12.11 9.8,-21.89 21.89,-21.89 12.09,0 21.89,9.78 21.89,21.89z"/>
  <path class="fil0" d="M5952.44 1923c0.21,14.61 -11.45,26.64 -26.06,26.91 -132.92,2.31 -203.5,69.84 -226.73,92.04 -9.1,8.67 -15.63,14.93 -26.97,15.36l-0.91 0c-1.5,0 -3.04,-0.16 -4.5,-0.43 -10.7,-1.82 -19.27,-10.12 -21.4,-20.92 -0.32,-1.39 -0.49,-2.79 -0.54,-4.34 -0.31,-10.11 5.09,-19.15 13.38,-23.81 1.13,-1.17 2.84,-2.78 4.34,-4.17 12.41,-11.94 36.5,-34.95 74.01,-56.61 29.53,-17.13 67.43,-33.34 114.45,-42.49 0,0 0.06,0 0.1,-0.06 22.48,-4.34 47.1,-7.11 73.86,-7.49 14.72,-0.32 26.7,11.4 26.97,26.01z"/>
  <path class="fil0" d="M6937.29 2031.64c0,0.64 -0.05,1.23 -0.21,1.93 -1.13,11.71 -9.96,21.13 -21.3,23.27 -1.61,0.31 -3.26,0.44 -4.98,0.44l-0.86 0c-11.33,-0.38 -17.92,-6.69 -27.02,-15.37 -23.11,-22.21 -93.75,-89.69 -226.68,-91.98 -14.65,-0.28 -26.27,-12.32 -26.06,-26.93 0.27,-14.5 12.09,-26.06 26.55,-26.06l0.42 0c29.81,0.55 56.99,3.92 81.61,9.16 0.06,0 0.06,0.05 0.06,0.05 47.51,10.22 85.29,27.67 114.34,45.38 0.06,0 0.11,0.05 0.17,0.16 33.07,20.23 54.68,40.94 66.3,51.96 1.4,1.38 3.16,2.99 4.34,4.18 8.24,4.65 13.64,13.69 13.32,23.81z"/>
  <path class="fil0" d="M6214.25 2880.92c-1.71,-6.09 -2.89,-12.47 -3.32,-19.09 0.43,6.75 1.55,13.16 3.32,19.09zm-3.21 -34.19c0.27,-3.36 0.76,-6.69 1.39,-9.89 -0.91,3.1 -1.39,6.46 -1.39,9.89zm79.09 -6.94c0.48,2.39 0.76,4.87 0.76,7.43 0,-2.56 0.21,-5.04 0.63,-7.43l-1.39 0zm79.09 -2.95c0.65,3.2 1.12,6.53 1.45,9.89 -0.06,-3.43 -0.54,-6.79 -1.45,-9.89z"/>
  <path class="fil0" d="M6332.15 2930.37c-1.61,1.13 -3.27,2.14 -4.93,3.05 -1.66,0.96 -3.37,1.87 -5.09,2.63 -0.91,0.42 -1.82,0.85 -2.67,1.16l-2.68 1.08c-5.83,2.19 -12.03,3.75 -18.4,4.34 -1.12,0.11 -2.24,0.21 -3.37,0.26 -1.39,0.06 -2.73,0.1 -4.12,0.1 -1.13,0 -2.25,-0.04 -3.37,-0.04 -2.9,-0.17 -5.73,-0.43 -8.57,-0.91 -0.81,-0.06 -1.5,-0.27 -2.19,-0.38 -0.75,-0.11 -1.45,-0.32 -2.13,-0.49 -1.14,-0.21 -2.1,-0.47 -3.17,-0.8 -1.07,-0.21 -2.19,-0.53 -3.21,-0.91 -1.01,-0.26 -1.92,-0.64 -2.94,-1.02 -4.72,-1.76 -9.27,-3.89 -13.48,-6.56 -0.91,-0.49 -1.67,-1.04 -2.52,-1.57 -0.76,-0.53 -1.61,-1.06 -2.35,-1.65 -1.02,-0.76 -2.1,-1.55 -3.01,-2.25 -1.82,-1.45 -3.53,-2.94 -5.14,-4.44 -0.95,-0.91 -1.86,-1.82 -2.83,-2.79 -2.36,-2.4 -4.65,-5.08 -6.74,-7.75 -0.53,-0.75 -1.08,-1.55 -1.61,-2.25 -0.53,-0.76 -1.12,-1.61 -1.6,-2.3 -2.04,-3.05 -3.86,-6.27 -5.51,-9.53 -0.43,-0.85 -0.81,-1.65 -1.18,-2.56 -1.98,-4.07 -3.58,-8.36 -4.81,-12.79 -0.11,-0.38 -0.22,-0.7 -0.32,-1.02 -0.34,-1.12 -0.65,-2.3 -0.91,-3.42 -0.11,-0.49 -0.21,-0.87 -0.27,-1.23 -0.17,-0.76 -0.32,-1.57 -0.49,-2.31 -0.15,-0.8 -0.32,-1.61 -0.42,-2.46 -0.11,-0.31 -0.17,-0.75 -0.22,-1.12 -0.21,-1.24 -0.38,-2.41 -0.53,-3.59 0,-0.05 -0.06,-0.05 0,-0.11 -0.21,-1.65 -0.38,-3.26 -0.48,-4.91 -0.17,-2.2 -0.22,-4.51 -0.22,-6.75 0,-2.84 0.11,-5.62 0.38,-8.3 0.05,-3.48 0.53,-6.8 1.38,-9.95 0.43,-1.61 0.97,-3.2 1.57,-4.66 5.93,-14.61 20.22,-24.88 36.92,-24.88 19.52,0 35.73,14.02 39.22,32.54l1.38 0c3.54,-18.52 19.71,-32.54 39.23,-32.54 1.12,0 2.31,0.05 3.32,0.22 0.96,0.04 1.82,0.21 2.67,0.32 0.97,0.1 1.82,0.27 2.69,0.48 2.56,0.59 5.02,1.4 7.37,2.46 0.86,0.32 1.61,0.7 2.37,1.07 0.8,0.43 1.54,0.81 2.24,1.28 0.64,0.38 1.29,0.76 1.87,1.12 0.21,0.23 0.37,0.34 0.59,0.49 0.59,0.38 1.07,0.76 1.61,1.12 0.1,0.11 0.16,0.21 0.31,0.32 0.49,0.44 0.97,0.8 1.44,1.24 1.51,1.34 2.9,2.78 4.19,4.33 0.47,0.48 0.91,1.07 1.28,1.6 0.42,0.66 0.86,1.13 1.28,1.72 0.43,0.63 0.75,1.33 1.19,1.98 0.95,1.7 1.8,3.48 2.56,5.3 0.64,1.44 1.17,2.94 1.55,4.49 0.86,3.15 1.33,6.47 1.39,9.95 0.22,2.68 0.32,5.46 0.32,8.3 0,1.88 0,3.7 -0.16,5.56 0,0.28 0,0.53 -0.05,0.81 -0.06,1.39 -0.21,2.83 -0.38,4.17 -0.04,0.53 -0.1,1.08 -0.21,1.61 -0.15,1.5 -0.38,2.88 -0.64,4.27 0,0.22 -0.06,0.43 -0.1,0.66 -0.28,1.65 -0.55,3.3 -0.98,4.91 -0.1,0.43 -0.21,0.91 -0.31,1.29 -0.32,1.27 -0.64,2.46 -1.02,3.64 -0.17,0.64 -0.38,1.38 -0.59,2.08 -0.26,0.8 -0.53,1.61 -0.91,2.46 -0.21,0.69 -0.47,1.45 -0.74,2.2 -1.02,2.79 -2.31,5.56 -3.58,8.23 -0.44,0.91 -0.91,1.78 -1.35,2.69 -0.26,0.48 -0.54,0.91 -0.85,1.39 -0.43,0.85 -0.91,1.6 -1.34,2.4 -0.7,1.23 -1.46,2.3 -2.2,3.43 -0.91,1.39 -1.86,2.73 -2.84,4.06 -1.18,1.5 -2.35,3.01 -3.68,4.49 -0.81,1.03 -1.78,2.1 -2.73,3.07 -0.11,0.21 -0.27,0.36 -0.49,0.53 -1.18,1.17 -2.3,2.3 -3.47,3.36 -1.18,1.13 -2.47,2.25 -3.81,3.33 -1.27,1.06 -2.67,2.07 -4,3.05 -0.81,0.53 -1.56,1.12 -2.41,1.6zm296.94 -397.22c-6.69,-9.25 -17.13,-15.52 -28.68,-17.17 -23.29,-3.49 -45.22,11.92 -49.03,34.23 -24.18,142.73 -148.06,206.62 -260.07,206.62 -111.99,0 -235.87,-63.89 -260.07,-206.62 -3.79,-22.31 -25.78,-37.77 -49.01,-34.23 -11.51,1.65 -21.95,7.92 -28.68,17.17 -6.48,8.89 -9.04,19.75 -7.22,30.5 14.61,85.89 58.26,157.59 126.34,207.36 29.7,21.72 63.47,38.64 99.63,50.25 -0.47,1.45 -0.91,2.95 -1.34,4.39l-0.36 1.5 -0.27 1.55c-0.91,4.65 -1.61,9.52 -2.04,14.33 -0.32,3.85 -0.48,7.98 -0.48,12.05 0,24.61 6.37,48.32 18.31,68.76 4.59,7.97 10.1,15.47 16.36,22.37 1.23,1.29 2.46,2.62 3.69,3.9 1.35,1.35 2.58,2.62 4.02,3.81 18.35,17.06 40.67,27.66 64.75,30.92l0.05 0c5.19,0.75 10.5,1.13 15.9,1.13 5.14,0 10.22,-0.38 15.24,-1.02 0.06,0.06 0.06,0.06 0.11,0 24.13,-3.15 46.61,-13.76 65.03,-30.87l0.04 0c2.73,-2.52 5.42,-5.09 7.92,-7.87 1.46,-1.61 2.9,-3.26 4.23,-4.93 0,0 0.06,0 0.06,-0.05 4.43,-5.4 8.45,-11.17 11.99,-17.23 11.98,-20.55 18.4,-44.26 18.4,-68.92 0,-4.07 -0.16,-8.2 -0.47,-12.05 -0.44,-4.81 -1.14,-9.68 -2.04,-14.33l-0.27 -1.55 -0.43 -1.5c-0.37,-1.34 -0.8,-2.79 -1.22,-4.07 36.48,-11.66 70.58,-28.68 100.43,-50.57 68.18,-49.77 111.84,-121.47 126.4,-207.36 1.82,-10.75 -0.76,-21.61 -7.22,-30.5z"/>
  <path class="fil6" d="M6370.98 2855.06c0,48.59 -35.86,87.98 -80.11,87.98 -35.75,0 -65.98,-25.64 -76.37,-61.12 -0.11,-0.31 -0.22,-0.63 -0.32,-1.01 -0.43,-1.5 -0.81,-3.05 -1.12,-4.66 -0.75,-3.05 -1.29,-6.2 -1.66,-9.42 -0.21,-1.65 -0.38,-3.37 -0.48,-5.02 -0.17,-2.2 -0.22,-4.44 -0.22,-6.75 0,-2.84 0.11,-5.57 0.38,-8.3 0.32,-3.36 0.69,-6.69 1.34,-9.95 0.42,-1.61 1.02,-3.15 1.55,-4.7 5.99,-14.5 20.23,-24.79 36.98,-24.79 19.52,0 35.73,13.98 39.16,32.5 0.49,2.39 0.76,4.87 0.76,7.43 0,-2.56 0.26,-5.04 0.68,-7.43 3.49,-18.52 19.71,-32.5 39.18,-32.5 1.17,0 2.3,0 3.37,0.11 0.91,0.11 1.82,0.21 2.67,0.38 14.14,2.09 25.85,11.62 30.93,24.45 0.65,1.56 1.18,3.01 1.56,4.55 0.6,3.26 1.07,6.59 1.38,9.95 0.23,2.73 0.34,5.46 0.34,8.3z"/>
  <polygon class="fil5" points="250.32,3159.1 500.72,3159.1 746.43,3534.55 992.76,3159.1 1242.88,3159.1 871.82,3726.07 1266.21,4328.49 1015.82,4328.49 746.65,3917.31 477.64,4328.49 225.66,4328.49 621.17,3725.58 "/>
  <path class="fil5" d="M1869.74 4144c85.36,0 164.02,-22.91 236.1,-68.7 72.08,-45.87 123.23,-119.44 153.42,-220.63l-448.12 0 0 -202.66 448.12 0c-10.59,-80.21 -52.86,-151.44 -126.77,-213.67 -73.96,-62.19 -160.16,-93.22 -258.79,-93.22 -135.11,0 -254.33,55.92 -357.66,167.7l-155.79 -147.85c63,-75.23 140.16,-133.24 231.34,-174.07 91.14,-40.78 183.86,-61.22 278.26,-61.22 166.43,0 311.93,56.18 436.51,168.51 124.52,112.43 186.8,260.28 186.8,443.56 0,176 -56.84,322.69 -170.54,440.03 -113.72,117.41 -263.54,176.11 -449.56,176.11 -88.55,0 -172.57,-14.82 -252.09,-44.52 -79.53,-29.76 -164.82,-89.59 -256,-179.7l151.07 -157.38c108.09,111.84 225.98,167.71 353.7,167.71z"/>
  <polygon class="fil5" points="2702.26,3159.1 3543.31,3159.1 3543.31,4328.49 3318.34,4328.49 3318.34,3367.43 2928.03,3367.43 2928.03,4328.49 2702.26,4328.49 "/>
  <polygon class="fil5" points="3809.61,3159.1 4650.66,3159.1 4650.66,4328.49 4425.69,4328.49 4425.69,3367.43 4035.38,3367.43 4035.38,4328.49 3809.61,4328.49 "/>
  <polygon class="fil5" points="5769.13,3159.1 5769.13,4328.49 5546.51,4328.49 5546.51,3596.34 5110.44,4328.49 4916.95,4328.49 4916.95,3159.1 5139.5,3159.1 5139.5,3915.11 5581.46,3159.1 "/>
  <polygon class="fil5" points="6793.17,4328.48 6469.47,3468.7 6140.15,4328.48 5904.07,4328.48 6355.32,3159.07 6581.1,3159.07 7030.86,4328.48 "/>
  <path class="fil5" d="M7387.6 3799.06l0 317.16 55.6 0c92.25,0 154,-11.41 185.25,-34.2 31.25,-22.79 46.89,-61.7 46.89,-116.86 0,-110.78 -80.55,-166.1 -241.67,-166.1l-46.07 0zm-222.61 529.43l0 -1169.39 222.61 0 0 441.2 48.48 0c92.74,0 169.95,10.71 231.7,32.22 61.76,21.46 115.17,62.24 160.17,122.38 45.05,60.21 67.58,132.61 67.58,217.43 0,80 -19.31,147.85 -58.01,203.5 -38.68,55.66 -83.58,94.98 -134.74,118.05 -51.1,23.05 -121.26,34.61 -210.24,34.61l-327.55 0z"/>
  <polygon class="fil5" points="8203.71,3159.1 8420.6,3159.1 8691.63,3974.68 8965.18,3159.1 9181.91,3159.1 9378.08,4328.49 9162.86,4328.49 9037.48,3589.99 8789.03,4328.49 8592.85,4328.49 8346.69,3589.99 8218.26,4328.49 8001.27,4328.49 "/>
  <polygon class="fil5" points="9556.14,3159.1 10194.54,3159.1 10194.54,3376.9 9777.15,3376.9 9777.15,3588.32 10194.54,3588.32 10194.54,3802.21 9777.15,3802.21 9777.15,4109.85 10194.54,4109.85 10194.54,4328.49 9556.14,4328.49 "/>
  <polygon class="fil5" points="10401.15,3159.1 10626.97,3159.1 10626.97,3600.3 11017.29,3600.3 11017.29,3159.1 11242.2,3159.1 11242.2,4328.49 11017.29,4328.49 11017.29,3815.74 10626.97,3815.74 10626.97,4328.49 10401.15,4328.49 "/>
  <polygon class="fil5" points="12360.66,3159.1 12360.66,4328.49 12138.11,4328.49 12138.11,3596.34 11701.98,4328.49 11508.48,4328.49 11508.48,3159.1 11731.04,3159.1 11731.04,3915.11 12173,3159.1 "/>
 </g>
</svg>
